<svg width="19" height="20" viewBox="0 0 19 20" xmlns="http://www.w3.org/2000/svg">
<path d="M17.8136 0.714285H1.04353C0.466518 0.714285 0 1.1808 0 1.75781V18.5279C0 19.1049 0.466518 19.5714 1.04353 19.5714H10.067V12.2667H7.61161V9.41853H10.067V7.3192C10.067 4.88839 11.5647 3.5625 13.7377 3.5625C14.769 3.5625 15.6652 3.63616 15.923 3.67299V6.21428L14.4252 6.22656C13.2344 6.22656 13.0134 6.77902 13.0134 7.60156V9.41853H15.8248L15.4565 12.2667H13.0134V19.5714H17.8136C18.3906 19.5714 18.8571 19.1049 18.8571 18.5279V1.75781C18.8571 1.1808 18.3906 0.714285 17.8136 0.714285Z"/>
</svg>
