<svg width="19" height="20" viewBox="0 0 19 20" xmlns="http://www.w3.org/2000/svg">
<path d="M16.721 16.6496C16.721 17.067 16.3895 17.3984 15.9721 17.3984H2.84821C2.4308 17.3984 2.09933 17.067 2.09933 16.6496V8.6942H3.83036C3.67076 9.19754 3.58482 9.75 3.58482 10.3025C3.58482 13.4453 6.21205 15.9866 9.44085 15.9866C12.6819 15.9866 15.3092 13.4453 15.3092 10.3025C15.3092 9.75 15.2232 9.19754 15.0636 8.6942H16.721V16.6496ZM13.2344 10.106C13.2344 12.1317 11.5402 13.7768 9.44085 13.7768C7.3538 13.7768 5.6596 12.1317 5.6596 10.106C5.6596 8.08036 7.3538 6.43527 9.44085 6.43527C11.5402 6.43527 13.2344 8.08036 13.2344 10.106ZM16.721 5.68638C16.721 6.1529 16.3404 6.53348 15.8739 6.53348H13.7377C13.2712 6.53348 12.8906 6.1529 12.8906 5.68638V3.66071C12.8906 3.1942 13.2712 2.81362 13.7377 2.81362H15.8739C16.3404 2.81362 16.721 3.1942 16.721 3.66071V5.68638ZM18.8571 3.13281C18.8571 1.80692 17.7645 0.714285 16.4386 0.714285H2.41853C1.09263 0.714285 0 1.80692 0 3.13281V17.1529C0 18.4788 1.09263 19.5714 2.41853 19.5714H16.4386C17.7645 19.5714 18.8571 18.4788 18.8571 17.1529V3.13281Z"/>
</svg>
