<svg width="19" height="20" viewBox="0 0 19 20" xmlns="http://www.w3.org/2000/svg">
<path d="M15.7143 6.6317C15.3705 7.1596 14.9286 7.61384 14.4252 7.96987C14.4375 8.08036 14.4375 8.19085 14.4375 8.30134C14.4375 11.7143 11.8348 15.6429 7.09598 15.6429C5.63505 15.6429 4.2846 15.2132 3.14286 14.4888C3.33929 14.5134 3.54799 14.5257 3.7567 14.5257C4.9721 14.5257 6.07701 14.1083 6.96094 13.4208C5.83147 13.3962 4.88616 12.6473 4.55469 11.6283C4.71429 11.6529 4.87388 11.6775 5.03348 11.6775C5.26674 11.6775 5.43862 11.6406 5.6596 11.5792C4.48103 11.346 3.53571 10.3025 3.53571 9.05022C3.53571 9.03795 3.53571 9.02567 3.53571 9.02567C3.92857 9.20982 4.33371 9.33259 4.76339 9.34487C4.06362 8.87835 3.64621 8.09263 3.64621 7.19643C3.64621 6.72991 3.78125 6.27567 4.00223 5.89509C5.27902 7.46652 7.18192 8.48549 9.33036 8.59598C9.28125 8.41183 9.26897 8.20312 9.26897 8.0067C9.26897 6.58259 10.423 5.42857 11.8471 5.42857C12.5837 5.42857 13.2589 5.73549 13.7254 6.23884C14.3147 6.12835 14.8672 5.90737 15.3705 5.61272C15.1741 6.21428 14.769 6.72991 14.2288 7.04911C14.7567 6.97545 15.2478 6.8404 15.7143 6.6317ZM18.8571 4.25C18.8571 2.29799 17.2734 0.714285 15.3214 0.714285H3.53571C1.58371 0.714285 0 2.29799 0 4.25V16.0357C0 17.9877 1.58371 19.5714 3.53571 19.5714H15.3214C17.2734 19.5714 18.8571 17.9877 18.8571 16.0357V4.25Z"/>
</svg>
