<svg width="19" height="20" viewBox="0 0 19 20" xmlns="http://www.w3.org/2000/svg">
<path d="M15.3214 0.714285H3.53571C1.58371 0.714285 0 2.29799 0 4.25V16.0357C0 17.9877 1.58371 19.5714 3.53571 19.5714H5.78237C5.70871 18.8962 5.59821 17.5826 5.8683 16.4531C5.8683 16.4531 6.05246 15.692 7.07143 11.3705C6.77679 10.769 6.77679 9.88504 6.77679 9.88504C6.77679 8.51004 7.57478 7.47879 8.5692 7.47879C9.4163 7.47879 9.82143 8.11719 9.82143 8.87835C9.82143 9.72545 9.28125 11.0022 8.99888 12.1808C8.76563 13.1752 9.50223 13.9855 10.4721 13.9855C12.24 13.9855 13.4308 11.7143 13.4308 9.02567C13.4308 6.97545 12.0558 5.45312 9.55134 5.45312C6.72768 5.45312 4.95982 7.55245 4.95982 9.9096C4.95982 10.7321 5.20536 11.2969 5.57366 11.7511C5.74554 11.9475 5.77009 12.0335 5.70871 12.2667C5.6596 12.4386 5.56138 12.856 5.52455 13.0156C5.46317 13.2489 5.26674 13.3348 5.05804 13.2489C3.7567 12.7087 3.14286 11.2846 3.14286 9.68862C3.14286 7.03683 5.37723 3.85714 9.80915 3.85714C13.3694 3.85714 15.7143 6.43527 15.7143 9.19754C15.7143 12.856 13.6763 15.5937 10.6808 15.5937C9.67411 15.5937 8.7288 15.0536 8.39732 14.4275C7.85714 16.5759 7.74665 16.9933 7.74665 16.9933C7.48884 18 6.82589 18.9944 6.42076 19.5714H15.3214C17.2734 19.5714 18.8571 17.9877 18.8571 16.0357V4.25C18.8571 2.29799 17.2734 0.714285 15.3214 0.714285Z"/>
</svg>
