<svg width="16" height="14" viewBox="0 0 16 14" xmlns="http://www.w3.org/2000/svg">
<path d="M14.8571 11.7143V4.85714C14.6667 5.07143 14.4613 5.26786 14.2411 5.44643C12.6458 6.67262 11.378 7.67857 10.4375 8.46429C10.1339 8.72024 9.88691 8.91964 9.69643 9.0625C9.50595 9.20536 9.24702 9.35119 8.91964 9.5C8.59821 9.64286 8.29464 9.71429 8.00893 9.71429H8H7.99107C7.70536 9.71429 7.39881 9.64286 7.07143 9.5C6.75 9.35119 6.49405 9.20536 6.30357 9.0625C6.1131 8.91964 5.86607 8.72024 5.5625 8.46429C4.62202 7.67857 3.35417 6.67262 1.75893 5.44643C1.53869 5.26786 1.33333 5.07143 1.14286 4.85714V11.7143C1.14286 11.7917 1.16964 11.8601 1.22321 11.9196C1.28274 11.9732 1.35119 12 1.42857 12H14.5714C14.6488 12 14.7143 11.9732 14.7679 11.9196C14.8274 11.8601 14.8571 11.7917 14.8571 11.7143ZM14.8571 2.33036C14.8571 2.31845 14.8571 2.28571 14.8571 2.23214C14.8571 2.17857 14.8571 2.13988 14.8571 2.11607C14.8571 2.08631 14.8542 2.04762 14.8482 2C14.8482 1.94643 14.8393 1.90774 14.8214 1.88393C14.8095 1.86012 14.7946 1.83333 14.7768 1.80357C14.7589 1.77381 14.7321 1.75298 14.6964 1.74107C14.6607 1.72321 14.619 1.71428 14.5714 1.71428H1.42857C1.35119 1.71428 1.28274 1.74405 1.22321 1.80357C1.16964 1.85714 1.14286 1.92262 1.14286 2C1.14286 3 1.58036 3.84524 2.45536 4.53571C3.60417 5.44048 4.79762 6.38393 6.03571 7.36607C6.07143 7.39583 6.1756 7.48512 6.34821 7.63393C6.52083 7.77679 6.65774 7.8869 6.75893 7.96429C6.86012 8.04167 6.99107 8.1369 7.15179 8.25C7.31845 8.35714 7.47024 8.4375 7.60714 8.49107C7.74405 8.54464 7.87202 8.57143 7.99107 8.57143H8H8.00893C8.12798 8.57143 8.25595 8.54464 8.39286 8.49107C8.52976 8.4375 8.67857 8.35714 8.83929 8.25C9.00595 8.1369 9.13988 8.04167 9.24107 7.96429C9.34226 7.8869 9.47917 7.77679 9.65179 7.63393C9.82441 7.48512 9.92857 7.39583 9.96429 7.36607C11.2024 6.38393 12.3958 5.44048 13.5446 4.53571C13.8661 4.27976 14.1637 3.9375 14.4375 3.50893C14.7173 3.0744 14.8571 2.68155 14.8571 2.33036ZM16 2V11.7143C16 12.1071 15.8601 12.4435 15.5804 12.7232C15.3006 13.003 14.9643 13.1429 14.5714 13.1429H1.42857C1.03571 13.1429 0.699405 13.003 0.419643 12.7232C0.139881 12.4435 0 12.1071 0 11.7143V2C0 1.60714 0.139881 1.27083 0.419643 0.991071C0.699405 0.711309 1.03571 0.571428 1.42857 0.571428H14.5714C14.9643 0.571428 15.3006 0.711309 15.5804 0.991071C15.8601 1.27083 16 1.60714 16 2Z"/>
</svg>
