<svg width="13" height="14" viewBox="0 0 13 14" xmlns="http://www.w3.org/2000/svg">
<path d="M12.9933 11.4554C12.9933 9.4375 12.5201 6.33929 9.90402 6.33929C9.62723 6.33929 8.45759 7.58036 6.70759 7.58036C4.95759 7.58036 3.78795 6.33929 3.51116 6.33929C0.895089 6.33929 0.421875 9.4375 0.421875 11.4554C0.421875 12.9018 1.38616 13.7679 2.8058 13.7679H10.6094C12.029 13.7679 12.9933 12.9018 12.9933 11.4554ZM10.1362 3.48214C10.1362 1.58928 8.60045 0.0535707 6.70759 0.0535707C4.81473 0.0535707 3.27902 1.58928 3.27902 3.48214C3.27902 5.375 4.81473 6.91071 6.70759 6.91071C8.60045 6.91071 10.1362 5.375 10.1362 3.48214Z" />
</svg>
