<svg width="13" height="14" viewBox="0 0 13 14" xmlns="http://www.w3.org/2000/svg">
<path d="M12.9933 10.4791C12.9933 10.4166 12.9933 10.3541 12.9665 10.2916C12.904 10.1041 12.4665 9.90766 12.2879 9.81838C11.779 9.53266 11.2612 9.25588 10.7612 8.96123C10.529 8.81838 10.2433 8.55052 9.96652 8.55052C9.42188 8.55052 8.62723 10.1666 8.14509 10.1666C7.90402 10.1666 7.59152 9.94338 7.37723 9.81838C5.75223 8.91659 4.62723 7.79159 3.72545 6.16659C3.60045 5.9523 3.37723 5.6398 3.37723 5.39873C3.37723 4.91659 4.9933 4.12195 4.9933 3.5773C4.9933 3.30052 4.72545 3.0148 4.58259 2.78266C4.28795 2.28266 4.01116 1.7648 3.72545 1.25588C3.63616 1.0773 3.43973 0.639805 3.25223 0.577305C3.18973 0.550519 3.12723 0.550519 3.06473 0.550519C2.7433 0.550519 2.1183 0.693377 1.82366 0.827305C1.38616 1.0148 1.10045 1.5148 0.877232 1.91659C0.591518 2.44338 0.421875 2.97909 0.421875 3.5773C0.421875 4.40766 0.761161 5.15766 1.03795 5.91659C1.23438 6.46123 1.47545 6.98802 1.77902 7.47909C2.71652 8.99695 4.54688 10.8273 6.06473 11.7648C6.5558 12.0684 7.08259 12.3094 7.62723 12.5059C8.38616 12.7827 9.13616 13.1219 9.96652 13.1219C10.5647 13.1219 11.1004 12.9523 11.6272 12.6666C12.029 12.4434 12.529 12.1577 12.7165 11.7202C12.8504 11.4255 12.9933 10.8005 12.9933 10.4791Z"/>
</svg>
