<svg width="13" height="11" viewBox="0 0 13 11" fill="none" xmlns="http://www.w3.org/2000/svg">
<path d="M6 6.5C6 5.67187 5.32813 5 4.5 5H2.75C2.33594 5 2 4.66406 2 4.25V4C2 2.89844 2.89844 2 4 2H4.5C4.77344 2 5 1.77344 5 1.5V0.499999C5 0.226562 4.77344 -5.96046e-07 4.5 -5.96046e-07H4C1.79688 -5.96046e-07 0 1.79687 0 4V9.5C0 10.3281 0.671875 11 1.5 11H4.5C5.32813 11 6 10.3281 6 9.5V6.5ZM13 6.5C13 5.67187 12.3281 5 11.5 5H9.75C9.33594 5 9 4.66406 9 4.25V4C9 2.89844 9.89844 2 11 2H11.5C11.7734 2 12 1.77344 12 1.5V0.499999C12 0.226562 11.7734 -5.96046e-07 11.5 -5.96046e-07H11C8.79688 -5.96046e-07 7 1.79687 7 4V9.5C7 10.3281 7.67188 11 8.5 11H11.5C12.3281 11 13 10.3281 13 9.5V6.5Z" fill="#C4C4C4"/>
</svg>
