<svg width="80" height="80" viewBox="0 0 80 80" fill="none" xmlns="http://www.w3.org/2000/svg">
<rect x="28.5" y="51.5" width="22" height="18" stroke="#333333" stroke-width="3"/>
<rect x="6.5" y="58.5" width="22" height="11" stroke="#333333" stroke-width="3"/>
<rect x="50.5" y="59.5" width="22" height="10" stroke="#333333" stroke-width="3"/>
<path d="M36.9119 64.6125H39.1094V58.29C39.1094 58.045 39.1169 57.7875 39.1319 57.5175L37.5719 58.8225C37.4819 58.8925 37.3919 58.9375 37.3019 58.9575C37.2169 58.9725 37.1344 58.9725 37.0544 58.9575C36.9794 58.9425 36.9119 58.9175 36.8519 58.8825C36.7919 58.8425 36.7469 58.8 36.7169 58.755L36.1319 57.9525L39.4394 55.14H40.9619V64.6125H42.9119V66H36.9119V64.6125Z" fill="#333333"/>
<path d="M40.9266 23.5365L39.5 19.1459L38.0734 23.5365L36.2773 29.0643H30.465H25.8484L29.5833 31.7779L34.2856 35.1943L32.4895 40.7221L31.0629 45.1127L34.7977 42.3992L39.5 38.9828L44.2023 42.3992L47.9371 45.1127L46.5105 40.7221L44.7144 35.1943L49.4167 31.7779L53.1516 29.0643H48.535H42.7227L40.9266 23.5365Z" fill="#0295F3" stroke="#0295F3" stroke-width="3"/>
</svg>
