<svg width="88" height="91" viewBox="0 0 88 91" fill="none" xmlns="http://www.w3.org/2000/svg">
<circle cx="49" cy="66" r="3.5" stroke="#333333" stroke-width="3"/>
<path fill-rule="evenodd" clip-rule="evenodd" d="M2.99921 48.5V43.5C2.83255 42.3333 3.59921 39.8 7.99921 39C9.84861 38.6637 14.8251 37.9035 20.8272 36.9866C29.105 35.722 39.3335 34.1594 46 33L46.1794 35.7801L41.5001 36.5L7.00007 42.5C6.50007 42.6667 5.60007 43.3 6.00007 44.5C6.40007 45.7 7.50002 46 8 46H46.8387L47 48.5H2.99921Z" fill="#333333"/>
<path d="M41.1211 46.3846L59.5057 28L66.5709 35.0651L53.5 48L41.1211 46.3846Z" fill="#0295F3"/>
<rect x="51.0078" y="46.3767" width="20.3318" height="3" transform="rotate(-45 51.0078 46.3767)" fill="#0295F3"/>
<path d="M33 47L54.5 25.5C55.1667 25 56.8 24.3 58 25.5C59.2 26.7 70.8333 38.3333 76.5 44C77.1667 44.6667 78.1 46.4 76.5 48C74.9 49.6 63.3333 61.1667 58.5 66" stroke="#0295F3" stroke-width="3"/>
<path d="M4.5 47.5H52C55.5899 47.5 58.5 50.4101 58.5 54V78C58.5 81.5899 55.5899 84.5 52 84.5H8C6.067 84.5 4.5 82.933 4.5 81V47.5Z" stroke="#333333" stroke-width="3"/>
<path d="M39.5 63C39.5 59.4101 42.4101 56.5 46 56.5H58.5V75.5H46C42.4101 75.5 39.5 72.5899 39.5 69V63Z" stroke="#333333" stroke-width="3"/>
</svg>
