<svg width="80" height="80" viewBox="0 0 80 80" fill="none" xmlns="http://www.w3.org/2000/svg">
<path d="M15 47C15 62.464 27.536 75 43 75C58.464 75 71 62.464 71 47C71 31.536 58.464 19 43 19C34.8987 19 27.601 22.4405 22.4884 27.9401" stroke="#333333" stroke-width="3"/>
<path d="M64.5457 56.9559C66.3258 53.373 67.1617 49.395 66.9742 45.3986C66.7867 41.4023 65.582 37.52 63.4743 34.1195C61.3666 30.719 58.4256 27.9128 54.93 25.967C51.4343 24.0211 47.4998 22.9998 43.4991 23L43.5 46.5L64.5457 56.9559Z" fill="#0295F3"/>
<path d="M5.53466 46L15 36.1633L24.4653 46H5.53466Z" stroke="#333333" stroke-width="3"/>
<rect x="33.5" y="5.5" width="20" height="9" rx="2.5" stroke="#333333" stroke-width="3"/>
<rect x="67" y="15.1213" width="12.4444" height="5.99636" rx="2.5" transform="rotate(45 67 15.1213)" stroke="#333333" stroke-width="3"/>
<rect x="39" y="16" width="9" height="2" fill="#333333"/>
</svg>
