<svg width="80" height="80" viewBox="0 0 80 80" fill="none" xmlns="http://www.w3.org/2000/svg">
<path d="M26.5 31L32 25.5" stroke="#333333" stroke-width="3" stroke-linecap="round" stroke-linejoin="round"/>
<path d="M51.5 31L46 25.5" stroke="#333333" stroke-width="3" stroke-linecap="round" stroke-linejoin="round"/>
<ellipse cx="46" cy="53.5" rx="4" ry="2.5" fill="#333333"/>
<path d="M37.5002 39.0001C35.8002 42.8472 33.0425 44.3671 30.7385 43.349C28.4346 42.331 27.8003 39.8471 29.5003 36C31.2002 32.1529 34.9466 28.7105 36.8945 29.4174C38.5 30 39.2001 35.153 37.5002 39.0001Z" fill="#333333"/>
<path d="M41.4451 39.0001C43.1451 42.8472 45.9028 44.3671 48.2068 43.349C50.5108 42.331 51.145 39.8471 49.4451 36C47.7451 32.1529 43.9987 28.7105 42.0508 29.4174C40.4453 30 39.7452 35.153 41.4451 39.0001Z" fill="#333333"/>
<path fill-rule="evenodd" clip-rule="evenodd" d="M67 40C67 54.9117 54.9117 67 40 67C25.0883 67 13 54.9117 13 40C13 25.0883 25.0883 13 40 13C47.4278 13 54.1551 15.9994 59.0367 20.8531L59.8693 17.5227C54.5777 12.8414 47.6207 10 40 10C23.4315 10 10 23.4315 10 40C10 56.5685 23.4315 70 40 70C56.5685 70 70 56.5685 70 40C70 38.8137 69.9311 37.6436 69.7972 36.4932C68.7379 37.9103 67.8095 38.8865 66.9962 39.5443C66.9987 39.6959 67 39.8478 67 40Z" fill="#333333"/>
<path d="M57.9998 31.5C60.0008 28 61.1665 22 61.9998 18.5C63.1996 19.3 65.8332 25.5 67.0001 28.5C67.5001 29.5 68.3001 32.1 67.5001 34.5C66.5001 37.5 64.001 38 62.501 38C61.301 38 59.6666 37.1667 58.9998 36.5C58.1665 35.6667 56.8422 33.5248 57.9998 31.5Z" fill="#0295F3" stroke="#0295F3"/>
</svg>
