<svg width="80" height="80" viewBox="0 0 80 80" fill="none" xmlns="http://www.w3.org/2000/svg">
<circle cx="34" cy="40" r="27.5" stroke="#333333" stroke-width="3"/>
<mask id="path-2-inside-1" fill="white">
<path fill-rule="evenodd" clip-rule="evenodd" d="M42.5 68.7909C56.8658 67.0628 68 54.8317 68 40C68 25.1683 56.8658 12.9372 42.5 11.2091C43.6474 11.071 44.8154 11 46 11C62.0163 11 75 23.9837 75 40C75 56.0163 62.0163 69 46 69C44.8154 69 43.6474 68.929 42.5 68.7909Z"/>
</mask>
<path fill-rule="evenodd" clip-rule="evenodd" d="M42.5 68.7909C56.8658 67.0628 68 54.8317 68 40C68 25.1683 56.8658 12.9372 42.5 11.2091C43.6474 11.071 44.8154 11 46 11C62.0163 11 75 23.9837 75 40C75 56.0163 62.0163 69 46 69C44.8154 69 43.6474 68.929 42.5 68.7909Z" fill="#333333"/>
<path d="M42.5 68.7909L42.3806 67.7981L42.3806 69.7838L42.5 68.7909ZM42.5 11.2091L42.3806 10.2162V12.2019L42.5 11.2091ZM67 40C67 54.3195 56.25 66.1297 42.3806 67.7981L42.6194 69.7838C57.4817 67.9959 69 55.3438 69 40H67ZM42.3806 12.2019C56.25 13.8703 67 25.6805 67 40H69C69 24.6562 57.4817 12.0041 42.6194 10.2162L42.3806 12.2019ZM42.6194 12.2019C43.7273 12.0686 44.8554 12 46 12V10C44.7754 10 43.5675 10.0734 42.3806 10.2162L42.6194 12.2019ZM46 12C61.464 12 74 24.536 74 40H76C76 23.4315 62.5685 10 46 10V12ZM74 40C74 55.464 61.464 68 46 68V70C62.5685 70 76 56.5685 76 40H74ZM46 68C44.8554 68 43.7273 67.9314 42.6194 67.7981L42.3806 69.7838C43.5675 69.9266 44.7754 70 46 70V68Z" fill="#333333" mask="url(#path-2-inside-1)"/>
<path d="M27.0343 48.192H31.7943V35.697C31.7943 35.085 31.8113 34.4447 31.8453 33.776L29.0403 36.105C28.791 36.2977 28.5417 36.4167 28.2923 36.462C28.0543 36.496 27.8277 36.496 27.6123 36.462C27.397 36.4167 27.2043 36.343 27.0343 36.241C26.8643 36.1277 26.7397 36.0143 26.6603 35.901L24.9943 33.691L32.7123 27.214H37.0643V48.192H41.1443V52H27.0343V48.192Z" fill="#0295F3"/>
</svg>
