<svg width="84" height="80" viewBox="0 0 84 80" fill="none" xmlns="http://www.w3.org/2000/svg">
<path fill-rule="evenodd" clip-rule="evenodd" d="M42 53C51.9411 53 60 44.9411 60 35C60 25.0589 51.9411 17 42 17C32.0589 17 24 25.0589 24 35C24 44.9411 32.0589 53 42 53ZM50.0299 32.5905C50.6322 32.0217 50.6593 31.0723 50.0905 30.4701C49.5217 29.8678 48.5723 29.8407 47.9701 30.4095L40.0299 37.9086L36.0607 33.9393C35.4749 33.3536 34.5251 33.3536 33.9393 33.9393C33.3536 34.5251 33.3536 35.4749 33.9393 36.0607L38.9393 41.0607C39.5133 41.6347 40.4398 41.6479 41.0299 41.0905L50.0299 32.5905Z" fill="#0295F3"/>
<path d="M27 56L22 67L27.5 66.5L30.5 71L36 60" stroke="#333333" stroke-width="2"/>
<path d="M57.5 54L64 67L58.5 66.5L55 71L49 59.5" stroke="#333333" stroke-width="2"/>
<path d="M41.8204 9.22143L42.7734 8.07984L41.8204 9.22143L44.2868 11.2803C45.2221 12.0611 46.4963 12.2993 47.6506 11.9091L50.6941 10.8802C50.9231 10.8028 51.1746 10.9003 51.2917 11.1117L52.8478 13.9225C53.4379 14.9885 54.54 15.6709 55.7573 15.724L58.967 15.864C59.2084 15.8746 59.4078 16.0563 59.4405 16.2958L59.8762 19.4789C60.0414 20.6861 60.8225 21.7205 61.9384 22.2097L64.8808 23.4998C65.1021 23.5969 65.2224 23.8383 65.1664 24.0735L64.4228 27.199C64.1407 28.3843 64.4954 29.6311 65.3593 30.4904L67.6369 32.7563C67.8082 32.9267 67.8331 33.1953 67.696 33.3944L65.8735 36.0402C65.1823 37.0436 65.0627 38.3343 65.5578 39.4477L66.8631 42.3833C66.9613 42.6041 66.8875 42.8636 66.6877 42.9997L64.0325 44.8084C63.0255 45.4944 62.4477 46.6547 62.5071 47.8717L62.6638 51.0807C62.6756 51.3221 62.5131 51.5374 62.2777 51.5921L59.1483 52.3195C57.9615 52.5954 57.0036 53.4687 56.6194 54.625L55.6063 57.6738C55.5301 57.9032 55.3007 58.0452 55.0615 58.0112L51.8807 57.5591C50.6743 57.3876 49.4657 57.8558 48.6897 58.7953L46.6436 61.2722C46.4897 61.4586 46.2246 61.5082 46.0137 61.39L43.211 59.8194C42.1481 59.2237 40.8519 59.2237 39.789 59.8194L36.9863 61.39L37.7196 62.6985L36.9863 61.39C36.7754 61.5082 36.5103 61.4586 36.3564 61.2722L34.3103 58.7953C33.5343 57.8558 32.3257 57.3876 31.1193 57.5591L27.9385 58.0112C27.6993 58.0452 27.4699 57.9032 27.3937 57.6738L26.3806 54.625C25.9964 53.4687 25.0385 52.5954 23.8517 52.3195L20.7223 51.5921C20.4869 51.5374 20.3244 51.3221 20.3362 51.0807L20.4929 47.8717C20.5523 46.6547 19.9745 45.4944 18.9675 44.8084L16.3123 42.9997L15.4827 44.2174L16.3123 42.9997C16.1125 42.8636 16.0387 42.6041 16.1369 42.3833L17.4422 39.4477C17.9373 38.3343 17.8177 37.0436 17.1265 36.0402L15.304 33.3944L14.0809 34.2369L15.304 33.3944C15.1669 33.1953 15.1918 32.9267 15.3631 32.7563L17.6407 30.4904C18.5046 29.6311 18.8593 28.3843 18.5772 27.199L17.8336 24.0735C17.7776 23.8383 17.8979 23.5969 18.1192 23.4998L21.0616 22.2097C22.1775 21.7205 22.9586 20.6861 23.1238 19.4789L23.5595 16.2958C23.5922 16.0563 23.7916 15.8746 24.033 15.864L27.2427 15.724C28.46 15.6709 29.5621 14.9885 30.1522 13.9225L31.7083 11.1117C31.8254 10.9003 32.0769 10.8028 32.3059 10.8802L35.3494 11.9091C36.5037 12.2993 37.7779 12.0611 38.7132 11.2803L41.1796 9.22143C41.3651 9.06655 41.6349 9.06655 41.8204 9.22143Z" stroke="#333333" stroke-width="3"/>
</svg>
