<svg width="130" height="113" viewBox="0 0 130 113" fill="none" xmlns="http://www.w3.org/2000/svg">
<path fill-rule="evenodd" clip-rule="evenodd" d="M13 0H16H92C98.6274 0 104 5.37258 104 12V33.154L80.473 56H70H60C57.7909 56 56 57.7909 56 60C56 62.2091 57.7909 64 60 64H72.2346L68.1644 67.9524L59 89.355V90.7663C59.4652 92.1775 62.8142 97 64.4889 97H67.28L89.3998 87.71L104 72.916V101C104 107.627 98.6274 113 92 113H28C21.3726 113 16 107.627 16 101V28H3.5C1.1 28 0.5 26 0.5 25V20C0.5 4 8.83333 0 13 0ZM56 40C56 37.7909 57.7909 36 60 36H84C86.2091 36 88 37.7909 88 40C88 42.2091 86.2091 44 84 44H60C57.7909 44 56 42.2091 56 40ZM50.3944 33.8284C48.8323 32.2663 46.2996 32.2663 44.7376 33.8284L39.6111 38.9549L38.4847 37.8284C36.9226 36.2663 34.3899 36.2663 32.8278 37.8284C31.2657 39.3905 31.2657 41.9232 32.8278 43.4853L33.9543 44.6117L33.9225 44.6434L36.751 47.4719C38.3131 49.034 40.8457 49.034 42.4078 47.4719L50.3944 39.4853C51.9565 37.9232 51.9565 35.3905 50.3944 33.8284ZM44.7376 54.1716C46.2996 52.6095 48.8323 52.6095 50.3944 54.1716C51.9565 55.7337 51.9565 58.2663 50.3944 59.8284L42.4078 67.815C40.8457 69.3771 38.3131 69.3771 36.751 67.815L33.9225 64.9866L33.9543 64.9549L32.8278 63.8284C31.2657 62.2663 31.2657 59.7337 32.8278 58.1716C34.3899 56.6095 36.9226 56.6095 38.4847 58.1716L39.6111 59.298L44.7376 54.1716ZM50.3944 74.5147C48.8323 72.9526 46.2996 72.9526 44.7376 74.5147L39.6111 79.6411L38.4847 78.5147C36.9226 76.9526 34.3899 76.9526 32.8278 78.5147C31.2657 80.0768 31.2657 82.6095 32.8278 84.1716L33.9543 85.298L33.9225 85.3297L36.751 88.1581C38.3131 89.7202 40.8457 89.7202 42.4078 88.1581L50.3944 80.1716C51.9565 78.6095 51.9565 76.0768 50.3944 74.5147Z" fill="white"/>
<path fill-rule="evenodd" clip-rule="evenodd" d="M73.2187 69.2995L72 70.5L64 88.5V89.5C64.3333 90.5 65.3 92.5 66.5 92.5H68.5L86.5 84.5L119.5 51.5L105.5 37.5L73.4358 69.0856L87 82.619L71.25 91L66 85.7619L73.2187 69.2995Z" fill="white"/>
<path d="M72 70.5L70.9473 69.4314L70.7448 69.6309L70.6293 69.8908L72 70.5ZM73.2187 69.2995L74.5924 69.9019L72.166 68.2309L73.2187 69.2995ZM64 88.5L62.6293 87.8908L62.5 88.1817V88.5H64ZM64 89.5H62.5V89.7434L62.577 89.9743L64 89.5ZM68.5 92.5V94H68.8183L69.1092 93.8707L68.5 92.5ZM86.5 84.5L87.1092 85.8707L87.3637 85.7576L87.5607 85.5607L86.5 84.5ZM119.5 51.5L120.561 52.5607L121.621 51.5L120.561 50.4393L119.5 51.5ZM105.5 37.5L106.561 36.4393L105.508 35.3866L104.447 36.4314L105.5 37.5ZM73.4358 69.0856L72.3832 68.017L71.3053 69.0788L72.3764 70.1475L73.4358 69.0856ZM87 82.619L87.7046 83.9432L89.4957 82.9902L88.0595 81.5572L87 82.619ZM71.25 91L70.1905 92.0619L70.9756 92.8452L71.9546 92.3242L71.25 91ZM66 85.7619L64.6263 85.1595L64.2143 86.0991L64.9405 86.8238L66 85.7619ZM73.0527 71.5686L74.2713 70.3681L72.166 68.2309L70.9473 69.4314L73.0527 71.5686ZM65.3707 89.1092L73.3707 71.1092L70.6293 69.8908L62.6293 87.8908L65.3707 89.1092ZM65.5 89.5V88.5H62.5V89.5H65.5ZM66.5 91C66.6323 91 66.6604 91.0565 66.5634 90.9821C66.4644 90.906 66.3227 90.7582 66.1577 90.5203C65.8265 90.0427 65.558 89.4306 65.423 89.0257L62.577 89.9743C62.7753 90.5694 63.1568 91.4573 63.6923 92.2297C63.9607 92.6168 64.3065 93.0315 64.7366 93.3617C65.1688 93.6935 65.7677 94 66.5 94V91ZM68.5 91H66.5V94H68.5V91ZM85.8908 83.1293L67.8908 91.1293L69.1092 93.8707L87.1092 85.8707L85.8908 83.1293ZM118.439 50.4393L85.4393 83.4393L87.5607 85.5607L120.561 52.5607L118.439 50.4393ZM104.439 38.5607L118.439 52.5607L120.561 50.4393L106.561 36.4393L104.439 38.5607ZM74.4885 70.1542L106.553 38.5686L104.447 36.4314L72.3832 68.017L74.4885 70.1542ZM72.3764 70.1475L85.9405 83.6809L88.0595 81.5572L74.4953 68.0238L72.3764 70.1475ZM86.2954 81.2949L70.5454 89.6758L71.9546 92.3242L87.7046 83.9432L86.2954 81.2949ZM72.3095 89.9381L67.0595 84.7L64.9405 86.8238L70.1905 92.0619L72.3095 89.9381ZM67.3737 86.3643L74.5924 69.9019L71.8449 68.6972L64.6263 85.1595L67.3737 86.3643Z" fill="white"/>
<path d="M123.5 49.5L107.5 33.5L112 29C114.8 26.2 118.333 27.5 119.5 28.5L128.5 37.5C131.3 40.3 129.333 43.6667 128 45L123.5 49.5Z" fill="white"/>
</svg>
