<svg width="228" height="198" viewBox="0 0 228 198" fill="none" xmlns="http://www.w3.org/2000/svg">
<path d="M58.5 79.0001C56.8333 78.8334 53.4 79.4001 53 83.0001C52.5 87.5001 55.5 89.5001 52 94.0001C47.0029 100.425 33 92.0001 30 100C30 104 30 103.667 30 104C30 108 31.4 110 35 110C39.5 110 46 110 46 116C46 119.6 47.3333 121 49 122L51 123L53 123.5" stroke="#FF0000" stroke-width="3"/>
<path d="M47.5003 77.5C48.167 78 49.4003 79.5 49.0003 81.5C48.5003 84 46.0003 89.5 40.5003 90C35.0003 90.5 20.5003 87.5 20.5003 99C20.5003 102.6 20.5003 106.5 20.5003 108C20.3337 110.5 21.7003 115.5 28.5003 115.5C35.3003 115.5 33.6668 115.5 34 115.5C35 115.333 37.7 116.1 40.5 120.5C42.1 122.9 45.1667 123.333 46 123.5" stroke="#0295F3" stroke-width="3"/>
<path d="M63 123.5H63.3802L63.7144 123.319C66.1801 121.983 69.5902 120.098 73.387 117.999C81.9919 113.241 92.5833 107.385 98.6704 104.342C107.223 100.066 114.351 99.5 117 99.5H141C143.263 99.5 147.621 99.9736 149.535 100.431C156.333 103.212 166.464 107.397 175.979 111.328C187.016 115.888 197.225 120.106 200.443 121.393C203.215 122.502 204.651 123.841 205.432 125.099C206.216 126.364 206.44 127.709 206.492 129.035C206.494 129.237 206.495 129.415 206.496 129.575C200.497 130.191 198.314 134.469 198.5 137.06V145C198.5 147.774 200.414 149.674 202.298 150.79C203.643 151.587 205.173 152.114 206.5 152.353V156C206.5 157.283 205.595 158.638 203.961 159.765C202.351 160.876 200.392 161.5 199 161.5H191.243C190.636 158.742 189.302 155.147 186.789 152.054C183.825 148.406 179.246 145.5 172.5 145.5C165.76 145.5 161.1 148.4 158.093 152.045C155.561 155.114 154.208 158.696 153.696 161.5H78.3035C77.7919 158.696 76.439 155.114 73.9071 152.045C70.8999 148.4 66.2396 145.5 59.5 145.5C52.294 145.5 47.5691 148.374 44.6376 152.067C42.1939 155.146 41.0507 158.72 40.6499 161.5H32C26.4406 161.5 23.7112 159.455 22.2737 157.145C20.755 154.704 20.5002 151.687 20.5 149.5C20.5 149.5 20.5 149.5 20.5 149.5V146.5H24C26.983 146.5 28.9737 145.008 30.1308 143.176C31.225 141.443 31.5904 139.4 31.5 137.95V127.568C32.8538 126.195 35.3435 125.191 38.3373 124.527C41.4845 123.829 44.8176 123.583 47.0279 123.5H63Z" stroke="#4B4E58" stroke-width="3"/>
<path d="M23 141H19L26 129V138C26 140 25 141 23 141Z" fill="#4B4E58"/>
<path d="M207 135H208V147C204 147 203 145 203 144V138C203 136 205.667 135 207 135Z" fill="#4B4E58"/>
<circle cx="59.5" cy="163.5" r="12" stroke="#4B4E58" stroke-width="3"/>
<circle cx="59.5" cy="163.5" r="6.5" fill="#4B4E58"/>
<circle cx="172.5" cy="163.5" r="6.5" fill="#4B4E58"/>
<circle cx="172.5" cy="163.5" r="12" stroke="#4B4E58" stroke-width="3"/>
<path d="M122.551 106C122.551 104.895 123.447 104 124.551 104C125.656 104 126.551 104.895 126.551 106V155C126.551 156.105 125.656 157 124.551 157C123.447 157 122.551 156.105 122.551 155V106Z" fill="#2824EF"/>
<path d="M114.965 112.243C114.184 111.462 114.184 110.195 114.965 109.414C115.746 108.633 117.013 108.633 117.794 109.414L125.131 116.752C125.913 117.533 125.913 118.799 125.131 119.58C124.35 120.361 123.084 120.361 122.303 119.58L114.965 112.243Z" fill="#2824EF"/>
<path d="M131.303 109.414C132.084 108.633 133.35 108.633 134.131 109.414C134.913 110.195 134.913 111.462 134.131 112.243L126.794 119.58C126.013 120.361 124.746 120.361 123.965 119.58C123.184 118.799 123.184 117.533 123.965 116.752L131.303 109.414Z" fill="#2824EF"/>
<path d="M134.131 149.752C134.912 150.533 134.912 151.799 134.131 152.58C133.35 153.361 132.084 153.361 131.303 152.58L123.965 145.243C123.184 144.462 123.184 143.195 123.965 142.414C124.746 141.633 126.012 141.633 126.793 142.414L134.131 149.752Z" fill="#2824EF"/>
<path d="M117.793 152.58C117.012 153.361 115.746 153.361 114.965 152.58C114.184 151.799 114.184 150.533 114.965 149.752L122.303 142.414C123.084 141.633 124.35 141.633 125.131 142.414C125.912 143.195 125.912 144.462 125.131 145.243L117.793 152.58Z" fill="#2824EF"/>
<path d="M136.551 115C136.551 113.895 137.447 113 138.551 113C139.656 113 140.551 113.895 140.551 115V121C140.551 122.105 139.656 123 138.551 123C137.447 123 136.551 122.105 136.551 121V115Z" fill="#2824EF"/>
<path d="M147.297 123.077C148.364 123.363 148.997 124.459 148.711 125.526C148.425 126.593 147.328 127.226 146.261 126.94L138.693 124.913C137.626 124.627 136.993 123.53 137.279 122.463C137.565 121.396 138.662 120.763 139.729 121.049L147.297 123.077Z" fill="#2824EF"/>
<path d="M113.229 145.458C113.229 146.563 112.333 147.458 111.229 147.458C110.124 147.458 109.229 146.563 109.229 145.458L109.229 139.458C109.229 138.353 110.124 137.458 111.229 137.458C112.333 137.458 113.229 138.353 113.229 139.458L113.229 145.458Z" fill="#2824EF"/>
<path d="M102.483 137.381C101.416 137.095 100.783 135.999 101.069 134.932C101.355 133.865 102.451 133.232 103.518 133.518L111.086 135.545C112.153 135.831 112.786 136.928 112.5 137.995C112.215 139.062 111.118 139.695 110.051 139.409L102.483 137.381Z" fill="#2824EF"/>
<path d="M103.518 126.934C102.451 127.22 101.355 126.587 101.069 125.52C100.783 124.453 101.416 123.356 102.483 123.071L109.571 121.171C110.638 120.886 111.734 121.519 112.02 122.586C112.306 123.653 111.673 124.749 110.606 125.035L103.518 126.934Z" fill="#2824EF"/>
<path d="M108.551 115C108.551 113.895 109.447 113 110.551 113C111.656 113 112.551 113.895 112.551 115V122.835C112.551 123.94 111.656 124.835 110.551 124.835C109.447 124.835 108.551 123.94 108.551 122.835V115Z" fill="#2824EF"/>
<path d="M146.584 134.518C147.651 134.232 148.748 134.865 149.034 135.932C149.319 136.999 148.686 138.095 147.619 138.381L140.532 140.281C139.465 140.566 138.368 139.933 138.082 138.866C137.796 137.799 138.429 136.703 139.496 136.417L146.584 134.518Z" fill="#2824EF"/>
<path d="M141.551 146.452C141.551 147.556 140.656 148.452 139.551 148.452C138.447 148.452 137.551 147.556 137.551 146.452L137.551 138.617C137.551 137.512 138.447 136.617 139.551 136.617C140.656 136.617 141.551 137.512 141.551 138.617V146.452Z" fill="#2824EF"/>
<path d="M144.769 116.518C145.725 115.966 146.949 116.293 147.501 117.25C148.053 118.207 147.725 119.43 146.769 119.982L104.334 144.482C103.377 145.034 102.154 144.707 101.601 143.75C101.049 142.793 101.377 141.57 102.334 141.018L144.769 116.518Z" fill="#2824EF"/>
<path d="M146.768 141.018C147.725 141.57 148.053 142.793 147.5 143.75C146.948 144.707 145.725 145.034 144.768 144.482L102.333 119.982C101.376 119.43 101.049 118.207 101.601 117.25C102.153 116.293 103.376 115.966 104.333 116.518L146.768 141.018Z" fill="#2824EF"/>
<path d="M63.8796 123.715L53.9313 112.489C51.8454 109.883 45.9387 104.072 38.9997 101.67" stroke="#4B4E58" stroke-width="3"/>
<circle cx="34.5" cy="69.5" r="14" stroke="#4B4E58" stroke-width="3"/>
<rect x="34" y="58" width="1" height="5" fill="#0295F3"/>
<rect x="23" y="70" width="1" height="5" transform="rotate(-90 23 70)" fill="#0295F3"/>
<rect x="26" y="61.7071" width="1" height="4.89474" transform="rotate(-45 26 61.7071)" fill="#0295F3"/>
<path d="M33.7931 74L30 71L40 63L33.7931 74Z" fill="#0295F3"/>
<circle cx="68.7627" cy="69.5" r="14" stroke="#4B4E58" stroke-width="3"/>
<rect x="68" y="58" width="1" height="5" fill="#E30614"/>
<rect x="57" y="70" width="1" height="5" transform="rotate(-90 57 70)" fill="#E30614"/>
<rect x="60.3809" y="62.2721" width="1" height="4.89474" transform="rotate(-45 60.3809 62.2721)" fill="#E30614"/>
<path d="M68.0005 74L64.9998 71L73.9999 63L68.0005 74Z" fill="#E30614"/>
<rect x="48.5" y="66.5" width="6" height="4" fill="#4B4E58" stroke="#4B4E58"/>
</svg>
