<svg width="228" height="198" viewBox="0 0 228 198" fill="none" xmlns="http://www.w3.org/2000/svg">
<path d="M64 123.5H64.3802L64.7145 123.319C67.1802 121.983 70.5902 120.098 74.387 117.999C82.9919 113.241 93.5833 107.385 99.6704 104.342C108.223 100.066 115.351 99.5 118 99.5H142C144.263 99.5 148.621 99.9736 150.535 100.431C157.333 103.212 167.464 107.397 176.979 111.328C188.016 115.888 198.225 120.106 201.443 121.393C204.215 122.502 205.651 123.841 206.432 125.099C207.216 126.364 207.44 127.709 207.493 129.035C207.494 129.237 207.495 129.415 207.496 129.575C201.497 130.191 199.314 134.469 199.5 137.06V145C199.5 147.774 201.414 149.674 203.298 150.79C204.643 151.587 206.173 152.114 207.5 152.353V156C207.5 157.283 206.595 158.638 204.961 159.765C203.351 160.876 201.392 161.5 200 161.5H192.243C191.636 158.742 190.302 155.147 187.789 152.054C184.825 148.406 180.246 145.5 173.5 145.5C166.76 145.5 162.1 148.4 159.093 152.045C156.561 155.114 155.208 158.696 154.697 161.5H79.3035C78.7919 158.696 77.439 155.114 74.9071 152.045C71.8999 148.4 67.2396 145.5 60.5 145.5C53.294 145.5 48.5691 148.374 45.6376 152.067C43.1939 155.146 42.0507 158.72 41.6499 161.5H33C27.4406 161.5 24.7112 159.455 23.2738 157.145C21.7551 154.704 21.5002 151.687 21.5 149.5C21.5 149.5 21.5 149.5 21.5 149.5V146.5H25C27.983 146.5 29.9737 145.008 31.1308 143.176C32.225 141.443 32.5905 139.4 32.5 137.95V127.568C33.8539 126.195 36.3435 125.191 39.3373 124.527C42.4845 123.829 45.8176 123.583 48.0279 123.5H64Z" stroke="#4B4E58" stroke-width="3"/>
<path d="M24 141H20L27 129V138C27 140 26 141 24 141Z" fill="#4B4E58"/>
<path d="M208 135H209V147C205 147 204 145 204 144V138C204 136 206.667 135 208 135Z" fill="#4B4E58"/>
<circle cx="60.5" cy="163.5" r="12" stroke="#4B4E58" stroke-width="3"/>
<circle cx="60.5" cy="163.5" r="6.5" fill="#4B4E58"/>
<circle cx="173.5" cy="163.5" r="6.5" fill="#4B4E58"/>
<circle cx="173.5" cy="163.5" r="12" stroke="#4B4E58" stroke-width="3"/>
<path d="M123.551 106C123.551 104.895 124.447 104 125.551 104C126.656 104 127.551 104.895 127.551 106V155C127.551 156.105 126.656 157 125.551 157C124.447 157 123.551 156.105 123.551 155V106Z" fill="#2824EF"/>
<path d="M115.965 112.243C115.184 111.462 115.184 110.195 115.965 109.414C116.746 108.633 118.013 108.633 118.794 109.414L126.131 116.752C126.913 117.533 126.913 118.799 126.131 119.58C125.35 120.361 124.084 120.361 123.303 119.58L115.965 112.243Z" fill="#2824EF"/>
<path d="M132.303 109.414C133.084 108.633 134.35 108.633 135.131 109.414C135.913 110.195 135.913 111.462 135.131 112.243L127.794 119.58C127.013 120.361 125.746 120.361 124.965 119.58C124.184 118.799 124.184 117.533 124.965 116.752L132.303 109.414Z" fill="#2824EF"/>
<path d="M135.131 149.752C135.912 150.533 135.912 151.799 135.131 152.58C134.35 153.361 133.084 153.361 132.303 152.58L124.965 145.243C124.184 144.462 124.184 143.195 124.965 142.414C125.746 141.633 127.012 141.633 127.793 142.414L135.131 149.752Z" fill="#2824EF"/>
<path d="M118.793 152.58C118.012 153.361 116.746 153.361 115.965 152.58C115.184 151.799 115.184 150.533 115.965 149.752L123.303 142.414C124.084 141.633 125.35 141.633 126.131 142.414C126.912 143.195 126.912 144.462 126.131 145.243L118.793 152.58Z" fill="#2824EF"/>
<path d="M137.551 115C137.551 113.895 138.447 113 139.551 113C140.656 113 141.551 113.895 141.551 115V121C141.551 122.105 140.656 123 139.551 123C138.447 123 137.551 122.105 137.551 121V115Z" fill="#2824EF"/>
<path d="M148.297 123.077C149.364 123.363 149.997 124.459 149.711 125.526C149.425 126.593 148.328 127.226 147.261 126.94L139.693 124.913C138.626 124.627 137.993 123.53 138.279 122.463C138.565 121.396 139.662 120.763 140.729 121.049L148.297 123.077Z" fill="#2824EF"/>
<path d="M114.229 145.458C114.229 146.563 113.333 147.458 112.229 147.458C111.124 147.458 110.229 146.563 110.229 145.458L110.229 139.458C110.229 138.353 111.124 137.458 112.229 137.458C113.333 137.458 114.229 138.353 114.229 139.458L114.229 145.458Z" fill="#2824EF"/>
<path d="M103.483 137.381C102.416 137.095 101.783 135.999 102.069 134.932C102.355 133.865 103.451 133.232 104.518 133.518L112.086 135.545C113.153 135.831 113.786 136.928 113.501 137.995C113.215 139.062 112.118 139.695 111.051 139.409L103.483 137.381Z" fill="#2824EF"/>
<path d="M104.518 126.934C103.451 127.22 102.355 126.587 102.069 125.52C101.783 124.453 102.416 123.356 103.483 123.071L110.571 121.171C111.638 120.886 112.734 121.519 113.02 122.586C113.306 123.653 112.673 124.749 111.606 125.035L104.518 126.934Z" fill="#2824EF"/>
<path d="M109.551 115C109.551 113.895 110.447 113 111.551 113C112.656 113 113.551 113.895 113.551 115V122.835C113.551 123.94 112.656 124.835 111.551 124.835C110.447 124.835 109.551 123.94 109.551 122.835V115Z" fill="#2824EF"/>
<path d="M147.584 134.518C148.651 134.232 149.748 134.865 150.034 135.932C150.32 136.999 149.686 138.095 148.619 138.381L141.532 140.281C140.465 140.566 139.368 139.933 139.082 138.866C138.796 137.799 139.429 136.703 140.496 136.417L147.584 134.518Z" fill="#2824EF"/>
<path d="M142.551 146.452C142.551 147.556 141.656 148.452 140.551 148.452C139.447 148.452 138.551 147.556 138.551 146.452L138.551 138.617C138.551 137.512 139.447 136.617 140.551 136.617C141.656 136.617 142.551 137.512 142.551 138.617V146.452Z" fill="#2824EF"/>
<path d="M145.769 116.518C146.725 115.966 147.949 116.293 148.501 117.25C149.053 118.207 148.725 119.43 147.769 119.982L105.334 144.482C104.377 145.034 103.154 144.707 102.601 143.75C102.049 142.793 102.377 141.57 103.334 141.018L145.769 116.518Z" fill="#2824EF"/>
<path d="M147.768 141.018C148.725 141.57 149.053 142.793 148.5 143.75C147.948 144.707 146.725 145.034 145.768 144.482L103.333 119.982C102.376 119.43 102.049 118.207 102.601 117.25C103.153 116.293 104.376 115.966 105.333 116.518L147.768 141.018Z" fill="#2824EF"/>
<path fill-rule="evenodd" clip-rule="evenodd" d="M29.0298 89.4076L39.4402 79.0307C39.9151 78.6839 40.7223 77.5412 40.1525 75.7451C39.5826 73.949 40.3351 72.0215 40.7826 71.2822C41.1935 70.5977 42.4866 69.0809 44.3714 68.4895C46.7275 67.7502 48.2068 68.024 48.8643 68.1883C49.5218 68.3526 50.5903 68.7359 50.7546 68.9002C50.8861 69.0316 50.9373 69.1375 50.9464 69.174L47.2754 71.556C46.9923 71.7751 46.3987 72.4212 46.2891 73.2536C46.1795 74.0859 46.4261 74.7686 46.5631 75.0059C46.764 75.4257 47.2918 76.3858 47.7959 76.8677C48.3 77.3496 48.9009 77.5795 49.1383 77.6343C49.4305 77.6982 50.13 77.7603 50.5903 77.4974C51.0505 77.2346 53.5216 75.6538 54.6996 74.8963L54.9736 75.307C55.0466 75.8546 55.0119 77.3496 54.2887 78.9485C53.5655 80.5475 52.4715 81.4766 52.0149 81.7413C51.5765 82.0972 50.4095 82.7926 49.2479 82.946C48.0863 83.0993 47.2663 82.8821 47.0014 82.7543C46.6179 82.6083 45.4125 82.371 44.4262 83.1376C43.9963 83.3832 37.6859 89.7369 31.6944 95.7695C29.135 98.3465 26.6337 100.865 24.6739 102.824C24.2538 103.316 23.0794 104.231 21.7425 103.946C20.4056 103.661 19.6331 102.769 19.4139 102.358C19.0577 101.792 18.603 100.299 19.6331 98.8536C20.9261 97.4955 26.4363 91.9904 29.0298 89.4076Z" fill="#0295F3"/>
<path d="M39.2324 93.6902C39.4672 93.8048 39.7046 93.9146 39.9446 94.0195L39.8973 93.6247L41.7146 93.7595L52.1756 94.5355L53.3746 94.6244C53.75 94.4992 54.1204 94.3624 54.4853 94.2144L54.2627 94.0358L55.6032 92.8565L63.5512 85.864L64.3589 85.1534C64.5792 84.7271 64.7846 84.2914 64.9743 83.8471L64.7408 83.875L64.8805 82.0546L65.7 71.3712L65.7725 70.4258C65.5709 69.7326 65.3327 69.0556 65.0603 68.3972L64.1388 67.3615L57.058 59.4034L56.5156 58.7938C55.6185 58.2982 54.6784 57.8739 53.7029 57.5283L53.3213 57.512L42.8905 57.0668L42.7209 57.0595C41.7175 57.321 40.7454 57.6637 39.8118 58.0805L38.9293 58.9304L31.3582 66.2206L30.4133 67.1304C30.2096 67.5385 30.0195 67.9548 29.8435 68.3789L30.2499 68.33L30.112 70.1507L29.3029 80.8349L29.2198 81.9325C29.3202 82.2571 29.4287 82.578 29.545 82.895C31.0447 81.3774 32.1186 80.2823 32.7675 79.6171C32.4996 78.4703 32.3581 77.275 32.3581 76.0477C32.3581 67.5967 39.0718 60.6906 47.4209 60.6906L47.4333 60.6906H47.4358L47.4481 60.6906C55.7822 60.6906 62.4837 67.5843 62.4837 76.0199L62.4837 76.0322V76.0353L62.4837 76.0477C62.4837 84.4987 55.77 91.4048 47.4209 91.4048C45.632 91.4048 43.9137 91.0862 42.3195 90.5013L39.2324 93.6902ZM64.7889 90.0255C63.3937 91.8219 61.7357 93.397 59.8735 94.6899L62.1363 96.5044C62.1449 96.5095 62.1665 96.5218 62.1998 96.5351C62.249 96.5548 62.2998 96.5672 62.345 96.5708C62.387 96.5742 62.4206 96.57 62.4512 96.5603C62.4789 96.5514 62.5356 96.5283 62.6174 96.4551C63.5179 95.6494 65.5044 93.6875 66.2628 92.9331L66.276 92.92L66.2895 92.9072C66.289 92.9077 66.2958 92.9011 66.3073 92.8862C66.3191 92.871 66.3332 92.8504 66.3476 92.8251C66.3774 92.7728 66.4003 92.7146 66.413 92.6587C66.4252 92.6042 66.4258 92.5611 66.4214 92.5288C66.4174 92.5 66.4077 92.4646 66.3792 92.418L67.6581 91.6342L66.3792 92.418C66.0881 91.943 65.4447 90.9898 64.7889 90.0255ZM72.6093 72.539L72.2608 73.998C71.7173 73.8681 70.5723 73.6493 69.4207 73.4331C69.5158 74.2821 69.5646 75.1453 69.5646 76.0199C69.5646 77.492 69.4262 78.9318 69.1618 80.3264L72.0094 79.9868C72.0189 79.9842 72.0415 79.9775 72.0728 79.9637C72.1213 79.9422 72.168 79.9135 72.2059 79.8806C72.2415 79.8498 72.2677 79.8171 72.2872 79.7796C72.3054 79.7443 72.3319 79.6781 72.34 79.5596C72.4236 78.338 72.4808 75.5142 72.4989 74.4335L72.4992 74.4152L72.5 74.397C72.5002 74.3902 72.4997 74.3491 72.4837 74.2866C72.4683 74.2263 72.4443 74.1688 72.4158 74.1218C72.3881 74.0762 72.3619 74.0495 72.3426 74.0346C72.3265 74.0221 72.3037 74.0082 72.2608 73.998L72.6093 72.539ZM61.071 58.2425C62.8594 59.6715 64.4261 61.3751 65.7107 63.2903L67.4071 61.0565C67.4083 61.0544 67.4261 61.0271 67.446 60.9775C67.4682 60.922 67.4836 60.862 67.4888 60.8051C67.4938 60.751 67.4894 60.7043 67.477 60.6614C67.4655 60.6215 67.4394 60.5573 67.3676 60.471C66.5926 59.5385 64.7028 57.479 63.9762 56.6928L63.9636 56.6791L63.9513 56.6652C63.9521 56.6661 63.9461 56.6592 63.9319 56.6473C63.9179 56.6357 63.8993 56.622 63.8766 56.608C63.8294 56.579 63.7791 56.5578 63.7335 56.5463C63.6896 56.5353 63.6592 56.5353 63.6403 56.5377C63.6252 56.5396 63.6002 56.5448 63.5598 56.5697C63.0705 56.8722 62.0661 57.5585 61.071 58.2425ZM45.4243 50.7554C45.2912 51.3363 45.0672 52.4812 44.8516 53.6096C45.7031 53.5082 46.5695 53.456 47.4481 53.456C48.8642 53.456 50.2485 53.5915 51.5894 53.8504L51.2193 51.0218C51.2193 51.0217 51.2192 51.0215 51.2192 51.0212C51.2176 51.0144 51.2103 50.9823 51.1905 50.9356C51.1671 50.8804 51.1366 50.8292 51.1031 50.7887C51.0715 50.7506 51.041 50.7263 51.0106 50.7099C50.9834 50.6952 50.9294 50.6718 50.8269 50.6644C49.6343 50.5789 46.8734 50.5199 45.8147 50.5011L45.7956 50.5008L45.7766 50.5C45.7771 50.5 45.777 50.5 45.7763 50.5C45.7717 50.5002 45.7422 50.5012 45.6957 50.5137C45.6443 50.5273 45.5941 50.549 45.5523 50.5755C45.512 50.601 45.4863 50.6265 45.4698 50.6486C45.4553 50.6681 45.4372 50.6989 45.4243 50.7554ZM30.0531 62.0844C31.4299 60.2974 33.0658 58.7271 34.9037 57.4331L32.6641 55.6962C32.6541 55.6907 32.6333 55.6801 32.603 55.6689C32.5534 55.6506 32.5024 55.6396 32.4571 55.6372C32.4152 55.6349 32.3816 55.6399 32.3511 55.6505C32.3233 55.6602 32.267 55.6849 32.1868 55.7606C31.2534 56.6405 29.2968 58.487 28.6027 59.2141L28.5899 59.2276L28.5768 59.2406C28.5768 59.2406 28.5701 59.2475 28.5592 59.2624C28.5478 59.278 28.5342 59.299 28.5203 59.3248C28.4918 59.3781 28.4703 59.437 28.4591 59.4934C28.4481 59.5482 28.4487 59.5913 28.4539 59.6235C28.4586 59.6521 28.4691 59.687 28.4986 59.7325L27.2403 60.5489L28.4986 59.7325C28.8045 60.204 29.4239 61.1433 30.0531 62.0844ZM25.3317 76.0199C25.3317 74.613 25.4581 73.2357 25.7001 71.8991L22.9851 72.2257C22.9756 72.2283 22.9531 72.235 22.9218 72.2488C22.8733 72.2704 22.8267 72.2991 22.7887 72.332C22.7532 72.3629 22.727 72.3956 22.7076 72.4332C22.6894 72.4685 22.663 72.5348 22.655 72.6532C22.5725 73.8749 22.5182 76.6988 22.5011 77.7795L22.5008 77.7978L22.5 77.816C22.4998 77.8229 22.5003 77.8639 22.5164 77.9264C22.5319 77.9867 22.5559 78.0442 22.5844 78.0911C22.6122 78.1367 22.6385 78.1633 22.6577 78.1782C22.6738 78.1907 22.6966 78.2045 22.7395 78.2147C23.2695 78.3408 24.3711 78.5508 25.4933 78.7605C25.3866 77.8619 25.3317 76.9473 25.3317 76.0199ZM50.1231 98.4206C49.2464 98.5283 48.3538 98.5837 47.4481 98.5837C46.0902 98.5837 44.7607 98.4587 43.47 98.2195L43.8054 101.016C43.8082 101.027 43.8161 101.057 43.8337 101.098C43.8574 101.153 43.8882 101.204 43.9219 101.244C43.9537 101.282 43.9843 101.306 44.0147 101.322C44.0419 101.337 44.096 101.36 44.1986 101.366C45.3916 101.445 48.1528 101.487 49.2117 101.499L49.2307 101.499L49.2497 101.5C49.246 101.5 49.2769 101.501 49.3306 101.486C49.3819 101.472 49.432 101.45 49.4737 101.423C49.5139 101.397 49.5396 101.372 49.556 101.349C49.5703 101.33 49.5883 101.299 49.6009 101.242C49.7221 100.699 49.9229 99.5696 50.1231 98.4206Z" fill="#FF0000" stroke="#FF0000" stroke-width="3"/>
</svg>
