<svg width="228" height="198" viewBox="0 0 228 198" fill="none" xmlns="http://www.w3.org/2000/svg">
<circle cx="58.6939" cy="88.5306" r="8.29592" stroke="#4B4E58" stroke-width="3"/>
<path d="M42.3673 130.98L52 115C48.5 113.5 43.6327 109.5 43 107C42.264 104.092 42 99 46.9388 97.0204C42.7592 96.4979 39.9728 100.286 39.102 102.245C37.1429 106.381 32.5714 115.829 29.9592 120.531C27.3469 125.233 28 130.762 28.6531 132.939C29.0884 134.898 30.0898 139.6 30.6122 142.735C31.1347 145.869 31.2653 148.395 31.2653 149.265L28 171.469V173.429C28.4354 174.952 30.2204 178 33.8776 178C37.5347 178 38.8844 175.388 39.102 174.082C39.7551 170.599 41.1918 162.327 41.7143 157.102C42.2367 151.878 42.8027 147.088 43.0204 145.347L42.3673 130.98Z" fill="#0295F3"/>
<path d="M67.5309 113.194L67.9823 113.57L68.5687 113.539L80.0633 112.934L83.0865 118.116L70.2024 120.357C70.2008 120.357 70.1993 120.358 70.1977 120.358C69.0853 120.542 66.2287 120.559 64.0371 119.244L54.2411 113.367C52.9071 112.566 50.9131 111.25 49.1466 109.784C48.2634 109.052 47.4626 108.303 46.8351 107.581C46.1932 106.844 45.8074 106.219 45.6475 105.74C45.1362 104.206 45.1822 103.262 45.3598 102.606C45.5399 101.941 45.8786 101.435 46.3624 100.711C46.3983 100.658 46.4351 100.603 46.4726 100.546C47.0487 99.6821 47.3484 99.3818 47.7519 99.2022C48.175 99.0139 48.8999 98.8819 50.4156 98.9648L67.5309 113.194Z" stroke="#4B4E58" stroke-width="3"/>
<path d="M44.9796 147.959L44.3265 130.98C44.3242 130.919 45.1963 130.954 45.6327 130.98L56.7347 142.082C58.8245 144.171 59.7823 147.306 60 148.612L63.2653 172.775C63.7007 174.517 63.2653 178 58.0408 178C52.8163 178 51.5102 174.517 51.5102 172.775L49.551 151.224L44.9796 147.959Z" fill="#0295F3"/>
<path d="M74.3265 109.122C75.3714 110.167 76.9387 110.429 77.5918 110.429L84.1224 122.184L90 120.878L82.1632 107.163C82.3809 106.075 82.4245 103.376 80.8571 101.286C79.2898 99.1959 77.1531 99.2823 76.5 99.5L79 103.5L75.6326 105.857C74.9796 104.769 73.5428 102.461 73.0203 101.939C71.9754 102.984 72.1496 104.986 72.3673 105.857C72.585 106.51 73.2816 108.078 74.3265 109.122Z" fill="#FF0000"/>
<path d="M188 163H123C122.5 157.667 118 147 105.5 147C92 147 88.3333 157.667 88 163C86.5 163 82.7997 163 78 163C66 163 65.0004 154 65 149.5V145C66.6667 145 65.2 145 70 145C74.8 145 76.1667 140.333 76 138C76 136 76 131 76 127C79.2 123 88.5 122.167 93 122H121C129 117.667 147.2 107.4 156 103C164.8 98.6 172.167 98 175 98C181.667 98 183.6 98 186 98" stroke="#4B4E58" stroke-width="3"/>
<path d="M69 141H65L72 129V138C72 140 71 141 69 141Z" fill="#4B4E58"/>
<circle cx="105.5" cy="163.5" r="12" stroke="#4B4E58" stroke-width="3"/>
<circle cx="105.5" cy="163.5" r="6.5" fill="#4B4E58"/>
<path d="M121.545 122.742L111.441 97.7037C110.349 94.5499 106.732 87.0949 101 82.5054" stroke="#4B4E58" stroke-width="3"/>
<path d="M172.551 107C172.551 105.895 173.447 105 174.551 105C175.656 105 176.551 105.895 176.551 107V156C176.551 157.105 175.656 158 174.551 158C173.447 158 172.551 157.105 172.551 156V107Z" fill="#2824EF"/>
<path d="M164.965 113.243C164.184 112.462 164.184 111.195 164.965 110.414C165.746 109.633 167.013 109.633 167.794 110.414L175.131 117.752C175.913 118.533 175.913 119.799 175.131 120.58C174.35 121.361 173.084 121.361 172.303 120.58L164.965 113.243Z" fill="#2824EF"/>
<path d="M181.303 110.414C182.084 109.633 183.35 109.633 184.131 110.414C184.913 111.195 184.913 112.462 184.131 113.243L176.794 120.58C176.013 121.361 174.746 121.361 173.965 120.58C173.184 119.799 173.184 118.533 173.965 117.752L181.303 110.414Z" fill="#2824EF"/>
<path d="M184.131 150.752C184.912 151.533 184.912 152.799 184.131 153.58C183.35 154.361 182.084 154.361 181.303 153.58L173.965 146.243C173.184 145.462 173.184 144.195 173.965 143.414C174.746 142.633 176.012 142.633 176.793 143.414L184.131 150.752Z" fill="#2824EF"/>
<path d="M167.793 153.58C167.012 154.361 165.746 154.361 164.965 153.58C164.184 152.799 164.184 151.533 164.965 150.752L172.303 143.414C173.084 142.633 174.35 142.633 175.131 143.414C175.912 144.195 175.912 145.462 175.131 146.243L167.793 153.58Z" fill="#2824EF"/>
<path d="M186.551 116C186.551 114.895 187.447 114 188.551 114C189.656 114 190.551 114.895 190.551 116V122C190.551 123.105 189.656 124 188.551 124C187.447 124 186.551 123.105 186.551 122V116Z" fill="#2824EF"/>
<path d="M197.297 124.077C198.364 124.363 198.997 125.459 198.711 126.526C198.425 127.593 197.328 128.226 196.261 127.94L188.693 125.913C187.626 125.627 186.993 124.53 187.279 123.463C187.565 122.396 188.662 121.763 189.729 122.049L197.297 124.077Z" fill="#2824EF"/>
<path d="M163.229 146.458C163.229 147.563 162.333 148.458 161.229 148.458C160.124 148.458 159.229 147.563 159.229 146.458L159.229 140.458C159.229 139.353 160.124 138.458 161.229 138.458C162.333 138.458 163.229 139.353 163.229 140.458L163.229 146.458Z" fill="#2824EF"/>
<path d="M152.483 138.381C151.416 138.095 150.783 136.999 151.069 135.932C151.355 134.865 152.451 134.232 153.518 134.518L161.086 136.545C162.153 136.831 162.786 137.928 162.5 138.995C162.215 140.062 161.118 140.695 160.051 140.409L152.483 138.381Z" fill="#2824EF"/>
<path d="M153.518 127.934C152.451 128.22 151.355 127.587 151.069 126.52C150.783 125.453 151.416 124.356 152.483 124.071L159.571 122.171C160.638 121.886 161.734 122.519 162.02 123.586C162.306 124.653 161.673 125.749 160.606 126.035L153.518 127.934Z" fill="#2824EF"/>
<path d="M158.551 116C158.551 114.895 159.447 114 160.551 114C161.656 114 162.551 114.895 162.551 116V123.835C162.551 124.94 161.656 125.835 160.551 125.835C159.447 125.835 158.551 124.94 158.551 123.835V116Z" fill="#2824EF"/>
<path d="M196.584 135.518C197.651 135.232 198.748 135.865 199.034 136.932C199.319 137.999 198.686 139.095 197.619 139.381L190.532 141.281C189.465 141.566 188.368 140.933 188.082 139.866C187.796 138.799 188.429 137.703 189.496 137.417L196.584 135.518Z" fill="#2824EF"/>
<path d="M191.551 147.452C191.551 148.556 190.656 149.452 189.551 149.452C188.447 149.452 187.551 148.556 187.551 147.452L187.551 139.617C187.551 138.512 188.447 137.617 189.551 137.617C190.656 137.617 191.551 138.512 191.551 139.617V147.452Z" fill="#2824EF"/>
<path d="M194.769 117.518C195.725 116.966 196.949 117.293 197.501 118.25C198.053 119.207 197.725 120.43 196.769 120.982L154.334 145.482C153.377 146.034 152.154 145.707 151.601 144.75C151.049 143.793 151.377 142.57 152.334 142.018L194.769 117.518Z" fill="#2824EF"/>
<path d="M196.768 142.018C197.725 142.57 198.053 143.793 197.5 144.75C196.948 145.707 195.725 146.034 194.768 145.482L152.333 120.982C151.376 120.43 151.049 119.207 151.601 118.25C152.153 117.293 153.376 116.966 154.333 117.518L196.768 142.018Z" fill="#2824EF"/>
</svg>
