<svg width="228" height="198" viewBox="0 0 228 198" fill="none" xmlns="http://www.w3.org/2000/svg">
<path d="M110.555 144L128.555 136.5L125.055 144L128.555 152L110.555 144Z" fill="#4B4E58"/>
<path d="M98.5547 133C98.5547 134.105 99.4501 135 100.555 135C101.659 135 102.555 134.105 102.555 133L98.5547 133ZM125.055 144L123.242 143.154L122.86 143.973L123.222 144.802L125.055 144ZM128.555 136.5L130.367 137.346L132.55 132.669L127.785 134.654L128.555 136.5ZM110.555 144L109.785 142.154L105.497 143.941L109.742 145.828L110.555 144ZM128.555 152L127.742 153.828L132.453 155.921L130.387 151.198L128.555 152ZM102.555 133C102.555 130.941 102.606 128.498 103.477 126.575C103.889 125.665 104.46 124.934 105.265 124.417C106.071 123.898 107.258 123.5 109.055 123.5V119.5C106.652 119.5 104.676 120.039 103.101 121.052C101.524 122.066 100.496 123.46 99.8326 124.925C98.553 127.752 98.5547 131.059 98.5547 133L102.555 133ZM109.055 123.5H138.555V119.5H109.055V123.5ZM138.555 123.5C139.735 123.5 141.549 123.87 143.011 124.923C144.371 125.902 145.555 127.552 145.555 130.5H149.555C149.555 126.248 147.739 123.398 145.349 121.677C143.061 120.03 140.375 119.5 138.555 119.5V123.5ZM145.555 130.5V137H149.555V130.5H145.555ZM145.555 137C145.555 137.875 145.296 139.211 144.592 140.263C143.961 141.208 142.938 142 141.055 142V146C144.371 146 146.599 144.458 147.918 142.487C149.164 140.622 149.555 138.458 149.555 137H145.555ZM141.055 142H125.055V146H141.055V142ZM127.785 134.654L109.785 142.154L111.324 145.846L129.324 138.346L127.785 134.654ZM109.742 145.828L127.742 153.828L129.367 150.172L111.367 142.172L109.742 145.828ZM130.387 151.198L126.887 143.198L123.222 144.802L126.722 152.802L130.387 151.198ZM126.867 144.846L130.367 137.346L126.742 135.654L123.242 143.154L126.867 144.846Z" fill="#4B4E58"/>
<path d="M64 123.5H64.3802L64.7144 123.319C67.1801 121.983 70.5902 120.098 74.387 117.999C82.9919 113.241 93.5833 107.385 99.6704 104.342C108.223 100.066 115.351 99.5 118 99.5H142C144.263 99.5 148.621 99.9736 150.535 100.431C157.333 103.212 167.464 107.397 176.979 111.328C188.016 115.888 198.225 120.106 201.443 121.393C204.215 122.502 205.651 123.841 206.432 125.099C207.216 126.364 207.44 127.709 207.492 129.035C207.494 129.237 207.495 129.415 207.496 129.575C201.497 130.191 199.314 134.469 199.5 137.06V145C199.5 147.774 201.414 149.674 203.298 150.79C204.643 151.587 206.173 152.114 207.5 152.353V156C207.5 157.283 206.595 158.638 204.961 159.765C203.351 160.876 201.392 161.5 200 161.5H192.243C191.636 158.742 190.302 155.147 187.789 152.054C184.825 148.406 180.246 145.5 173.5 145.5C166.76 145.5 162.1 148.4 159.093 152.045C156.561 155.114 155.208 158.696 154.696 161.5H79.3035C78.7919 158.696 77.439 155.114 74.9071 152.045C71.8999 148.4 67.2396 145.5 60.5 145.5C53.294 145.5 48.5691 148.374 45.6376 152.067C43.1939 155.146 42.0507 158.72 41.6499 161.5H33C27.4406 161.5 24.7112 159.455 23.2737 157.145C21.755 154.704 21.5002 151.687 21.5 149.5C21.5 149.5 21.5 149.5 21.5 149.5V146.5H25C27.983 146.5 29.9737 145.008 31.1308 143.176C32.225 141.443 32.5904 139.4 32.5 137.95V127.568C33.8538 126.195 36.3435 125.191 39.3373 124.527C42.4845 123.829 45.8176 123.583 48.0279 123.5H64Z" stroke="#4B4E58" stroke-width="3"/>
<path d="M24 141H20L27 129V138C27 140 26 141 24 141Z" fill="#4B4E58"/>
<path d="M208 135H209V147C205 147 204 145 204 144V138C204 136 206.667 135 208 135Z" fill="#4B4E58"/>
<circle cx="60.5" cy="163.5" r="12" stroke="#4B4E58" stroke-width="3"/>
<circle cx="60.5" cy="163.5" r="6.5" fill="#4B4E58"/>
<circle cx="173.5" cy="163.5" r="6.5" fill="#4B4E58"/>
<circle cx="173.5" cy="163.5" r="12" stroke="#4B4E58" stroke-width="3"/>
<path d="M45.681 59.434C45.681 58.642 46.3325 58 47.1362 58C47.9399 58 48.5914 58.642 48.5914 59.434V94.566C48.5914 95.358 47.9399 96 47.1362 96C46.3325 96 45.681 95.358 45.681 94.566V59.434Z" fill="#2824EF"/>
<path d="M40.1614 63.9098C39.5931 63.3498 39.5931 62.4419 40.1614 61.8819C40.7297 61.3219 41.6511 61.3219 42.2194 61.8819L47.5585 67.1429C48.1268 67.7029 48.1268 68.6108 47.5585 69.1708C46.9902 69.7308 46.0688 69.7308 45.5004 69.1708L40.1614 63.9098Z" fill="#2824EF"/>
<path d="M52.049 61.8819C52.6173 61.3219 53.5387 61.3219 54.107 61.8819C54.6753 62.4419 54.6753 63.3498 54.107 63.9098L48.768 69.1708C48.1997 69.7308 47.2783 69.7308 46.71 69.1708C46.1417 68.6108 46.1417 67.7029 46.71 67.1429L52.049 61.8819Z" fill="#2824EF"/>
<path d="M54.1067 90.8033C54.675 91.3633 54.675 92.2712 54.1067 92.8312C53.5384 93.3912 52.617 93.3912 52.0487 92.8312L46.7097 87.5702C46.1414 87.0102 46.1414 86.1023 46.7097 85.5423C47.278 84.9823 48.1994 84.9823 48.7677 85.5423L54.1067 90.8033Z" fill="#2824EF"/>
<path d="M42.2192 92.8312C41.6509 93.3912 40.7295 93.3912 40.1612 92.8312C39.5929 92.2712 39.5929 91.3633 40.1612 90.8033L45.5002 85.5423C46.0685 84.9823 46.9899 84.9823 47.5582 85.5423C48.1265 86.1023 48.1265 87.0102 47.5582 87.5702L42.2192 92.8312Z" fill="#2824EF"/>
<path d="M55.8676 65.8868C55.8676 65.0948 56.5191 64.4528 57.3228 64.4528C58.1265 64.4528 58.7781 65.0948 58.7781 65.8868V70.1887C58.7781 70.9806 58.1265 71.6226 57.3228 71.6226C56.5191 71.6226 55.8676 70.9806 55.8676 70.1887V65.8868Z" fill="#2824EF"/>
<path d="M63.6862 71.6776C64.4625 71.8826 64.9232 72.6689 64.7152 73.4338C64.5072 74.1988 63.7092 74.6528 62.9329 74.4478L57.4263 72.9939C56.6499 72.7889 56.1892 72.0026 56.3972 71.2376C56.6053 70.4727 57.4032 70.0187 58.1795 70.2237L63.6862 71.6776Z" fill="#2824EF"/>
<path d="M38.8979 87.7246C38.8979 88.5166 38.2464 89.1586 37.4427 89.1586C36.639 89.1586 35.9875 88.5166 35.9875 87.7246L35.9875 83.4227C35.9875 82.6308 36.639 81.9888 37.4427 81.9888C38.2464 81.9888 38.8979 82.6308 38.8979 83.4227L38.8979 87.7246Z" fill="#2824EF"/>
<path d="M31.079 81.9338C30.3027 81.7288 29.842 80.9425 30.05 80.1776C30.258 79.4126 31.056 78.9586 31.8323 79.1636L37.3389 80.6175C38.1153 80.8225 38.576 81.6088 38.3679 82.3738C38.1599 83.1387 37.362 83.5927 36.5857 83.3877L31.079 81.9338Z" fill="#2824EF"/>
<path d="M31.8322 74.4434C31.0559 74.6484 30.258 74.1944 30.0499 73.4295C29.8419 72.6645 30.3026 71.8782 31.079 71.6732L36.2361 70.3116C37.0125 70.1066 37.8104 70.5606 38.0184 71.3255C38.2264 72.0905 37.7657 72.8768 36.9894 73.0818L31.8322 74.4434Z" fill="#2824EF"/>
<path d="M35.4943 65.8868C35.4943 65.0948 36.1459 64.4528 36.9496 64.4528C37.7533 64.4528 38.4048 65.0948 38.4048 65.8868V71.5043C38.4048 72.2963 37.7533 72.9383 36.9496 72.9383C36.1459 72.9383 35.4943 72.2963 35.4943 71.5043V65.8868Z" fill="#2824EF"/>
<path d="M63.1678 79.8806C63.9441 79.6756 64.742 80.1296 64.9501 80.8945C65.1581 81.6595 64.6974 82.4458 63.9211 82.6508L58.7639 84.0124C57.9875 84.2174 57.1896 83.7634 56.9816 82.9985C56.7736 82.2335 57.2343 81.4472 58.0106 81.2422L63.1678 79.8806Z" fill="#2824EF"/>
<path d="M59.5057 88.4372C59.5057 89.2292 58.8541 89.8712 58.0504 89.8712C57.2467 89.8712 56.5952 89.2292 56.5952 88.4372L56.5952 82.8197C56.5952 82.0277 57.2467 81.3857 58.0504 81.3857C58.8541 81.3857 59.5057 82.0277 59.5057 82.8197V88.4372Z" fill="#2824EF"/>
<path d="M61.8469 66.9751C62.5429 66.5792 63.4329 66.8141 63.8348 67.5C64.2366 68.1859 63.9981 69.0628 63.3021 69.4588L32.4255 87.0249C31.7295 87.4208 30.8395 87.1859 30.4376 86.5C30.0358 85.8141 30.2743 84.9371 30.9703 84.5412L61.8469 66.9751Z" fill="#2824EF"/>
<path d="M63.3018 84.5412C63.9978 84.9371 64.2363 85.8141 63.8344 86.5C63.4326 87.1859 62.5426 87.4208 61.8465 87.0249L30.9699 69.4588C30.2739 69.0628 30.0354 68.1858 30.4373 67.5C30.8391 66.8141 31.7292 66.5792 32.4252 66.9751L63.3018 84.5412Z" fill="#2824EF"/>
<path d="M19.0386 77C18.6868 72.3021 20.5866 61.325 31 55" stroke="#4B4E58" stroke-width="3" stroke-linecap="round" stroke-linejoin="round"/>
<path d="M54 104.265C48.4937 105.752 34.9848 105.981 25 95" stroke="#4B4E58" stroke-width="3" stroke-linecap="round"/>
<path d="M47 49.1214C50.3459 48.6387 58.8302 49.3386 66 56" stroke="#4B4E58" stroke-width="3" stroke-linecap="round"/>
<path d="M73.6814 69C75.3619 72.784 76.7783 83.2817 69 95" stroke="#4B4E58" stroke-width="3" stroke-linecap="round"/>
<path d="M41 50H26L29.8462 53.4483L31 55.8621V60L41 50Z" fill="#4B4E58"/>
<path d="M26 50V48.5H22.0799L24.9987 51.1169L26 50ZM41 50L42.0607 51.0607L44.6213 48.5H41V50ZM31 60H29.5V63.6213L32.0607 61.0607L31 60ZM31 55.8621H32.5V55.522L32.3533 55.2151L31 55.8621ZM29.8462 53.4483L31.1995 52.8014L31.0704 52.5313L30.8475 52.3314L29.8462 53.4483ZM26 51.5H41V48.5H26V51.5ZM39.9393 48.9393L29.9393 58.9393L32.0607 61.0607L42.0607 51.0607L39.9393 48.9393ZM32.5 60V55.8621H29.5V60H32.5ZM32.3533 55.2151L31.1995 52.8014L28.4928 54.0952L29.6467 56.509L32.3533 55.2151ZM30.8475 52.3314L27.0013 48.8831L24.9987 51.1169L28.8448 54.5651L30.8475 52.3314Z" fill="#4B4E58"/>
<path d="M20.6765 85.2455L21.1203 99.2503L24.5975 95.5456L27.077 94.3886L31.3862 94.2521L20.6765 85.2455Z" fill="#4B4E58"/>
<path d="M21.1203 99.2503L19.621 99.2978L19.7357 102.917L22.214 100.277L21.1203 99.2503ZM20.6765 85.2455L21.6419 84.0975L19.0708 81.9353L19.1772 85.293L20.6765 85.2455ZM31.3862 94.2521L31.4337 95.7513L35.3519 95.6271L32.3516 93.104L31.3862 94.2521ZM27.077 94.3886L27.0295 92.8894L26.7218 92.8991L26.4428 93.0293L27.077 94.3886ZM24.5975 95.5456L23.9632 94.1862L23.7014 94.3084L23.5037 94.519L24.5975 95.5456ZM22.6195 99.2028L22.1757 85.198L19.1772 85.293L19.621 99.2978L22.6195 99.2028ZM19.711 86.3935L30.4208 95.4001L32.3516 93.104L21.6419 84.0975L19.711 86.3935ZM31.3387 92.7528L27.0295 92.8894L27.1245 95.8879L31.4337 95.7513L31.3387 92.7528ZM26.4428 93.0293L23.9632 94.1862L25.2317 96.9049L27.7113 95.7479L26.4428 93.0293ZM23.5037 94.519L20.0265 98.2238L22.214 100.277L25.6912 96.5721L23.5037 94.519Z" fill="#4B4E58"/>
<path d="M60.9781 101.162L73.4105 98.1238L69.4452 95.7221L67.9447 93.7293L67.0118 89.9123L60.9781 101.162Z" fill="#4B4E58"/>
<path d="M73.4105 98.1238L73.7666 99.5809L77.2898 98.7198L74.1876 96.8408L73.4105 98.1238ZM60.9781 101.162L59.6562 100.453L58.066 103.418L61.3342 102.619L60.9781 101.162ZM67.0118 89.9123L68.4689 89.5561L67.5397 85.7543L65.6899 89.2033L67.0118 89.9123ZM67.9447 93.7293L66.4876 94.0854L66.5608 94.3851L66.7464 94.6315L67.9447 93.7293ZM69.4452 95.7221L68.247 96.6244L68.4209 96.8553L68.6681 97.0051L69.4452 95.7221ZM73.0543 96.6667L60.6219 99.7053L61.3342 102.619L73.7666 99.5809L73.0543 96.6667ZM62.2999 101.871L68.3337 90.6212L65.6899 89.2033L59.6562 100.453L62.2999 101.871ZM65.5547 90.2684L66.4876 94.0854L69.4018 93.3731L68.4689 89.5561L65.5547 90.2684ZM66.7464 94.6315L68.247 96.6244L70.6435 94.8198L69.143 92.827L66.7464 94.6315ZM68.6681 97.0051L72.6334 99.4068L74.1876 96.8408L70.2224 94.4391L68.6681 97.0051Z" fill="#4B4E58"/>
<path d="M71.094 63.6157L68.243 51.125L65.7712 55.0587L63.7486 56.5313L59.9053 57.4085L71.094 63.6157Z" fill="#4B4E58"/>
<path d="M68.243 51.125L69.7053 50.7912L68.8995 47.2607L66.9729 50.3269L68.243 51.125ZM71.094 63.6157L70.3663 64.9273L73.3039 66.5571L72.5564 63.2819L71.094 63.6157ZM59.9053 57.4085L59.5715 55.9461L55.7497 56.8185L59.1777 58.7202L59.9053 57.4085ZM63.7486 56.5313L64.0824 57.9937L64.3826 57.9252L64.6315 57.7439L63.7486 56.5313ZM65.7712 55.0587L66.6541 56.2714L66.8876 56.1014L67.0413 55.8568L65.7712 55.0587ZM66.7806 51.4588L69.6316 63.9495L72.5564 63.2819L69.7053 50.7912L66.7806 51.4588ZM71.8216 62.304L60.633 56.0968L59.1777 58.7202L70.3663 64.9273L71.8216 62.304ZM60.2391 58.8709L64.0824 57.9937L63.4148 55.0689L59.5715 55.9461L60.2391 58.8709ZM64.6315 57.7439L66.6541 56.2714L64.8884 53.8461L62.8658 55.3186L64.6315 57.7439ZM67.0413 55.8568L69.513 51.923L66.9729 50.3269L64.5011 54.2607L67.0413 55.8568Z" fill="#4B4E58"/>
</svg>
