<svg width="228" height="198" viewBox="0 0 228 198" fill="none" xmlns="http://www.w3.org/2000/svg">
<path d="M65 123.5H65.3802L65.7144 123.319C68.1801 121.983 71.5902 120.098 75.387 117.999C83.9919 113.241 94.5833 107.385 100.67 104.342C109.223 100.066 116.351 99.5001 119 99.5001H143C145.263 99.5001 149.621 99.9737 151.535 100.431C158.333 103.212 168.464 107.397 177.979 111.328C189.016 115.888 199.225 120.106 202.443 121.393C205.215 122.502 206.651 123.841 207.432 125.099C208.216 126.364 208.44 127.709 208.492 129.035C208.494 129.238 208.495 129.415 208.496 129.575C202.497 130.191 200.314 134.469 200.5 137.06V145C200.5 147.774 202.414 149.674 204.298 150.791C205.643 151.588 207.173 152.114 208.5 152.353V156C208.5 157.283 207.595 158.638 205.961 159.765C204.351 160.876 202.392 161.5 201 161.5H193.243C192.636 158.742 191.302 155.147 188.789 152.054C185.825 148.406 181.246 145.5 174.5 145.5C167.76 145.5 163.1 148.4 160.093 152.045C157.561 155.115 156.208 158.696 155.696 161.5H80.3035C79.7919 158.696 78.439 155.115 75.9071 152.045C72.8999 148.4 68.2396 145.5 61.5 145.5C54.294 145.5 49.5691 148.374 46.6376 152.067C44.1939 155.146 43.0507 158.72 42.6499 161.5H34C28.4406 161.5 25.7112 159.455 24.2737 157.145C22.755 154.704 22.5002 151.687 22.5 149.5C22.5 149.5 22.5 149.5 22.5 149.5V146.5H26C28.983 146.5 30.9737 145.008 32.1308 143.176C33.225 141.443 33.5904 139.4 33.5 137.95V127.568C34.8538 126.195 37.3435 125.191 40.3373 124.527C43.4845 123.829 46.8176 123.583 49.0279 123.5H65Z" stroke="#4B4E58" stroke-width="3"/>
<path d="M25 141H21L28 129V138C28 140 27 141 25 141Z" fill="#4B4E58"/>
<path d="M209 135H210V147C206 147 205 145 205 144V138C205 136 207.667 135 209 135Z" fill="#4B4E58"/>
<circle cx="61.5" cy="163.5" r="12" stroke="#4B4E58" stroke-width="3"/>
<circle cx="61.5" cy="163.5" r="6.5" fill="#4B4E58"/>
<circle cx="174.5" cy="163.5" r="6.5" fill="#4B4E58"/>
<circle cx="174.5" cy="163.5" r="12" stroke="#4B4E58" stroke-width="3"/>
<path d="M65.8796 123.716L55.9313 112.489C53.8454 109.884 47.9387 104.073 40.9997 101.67" stroke="#4B4E58" stroke-width="3"/>
<path d="M124.551 106C124.551 104.896 125.447 104 126.551 104C127.656 104 128.551 104.896 128.551 106V155C128.551 156.105 127.656 157 126.551 157C125.447 157 124.551 156.105 124.551 155V106Z" fill="#2824EF"/>
<path d="M116.965 112.243C116.184 111.462 116.184 110.196 116.965 109.415C117.746 108.634 119.013 108.634 119.794 109.415L127.131 116.752C127.913 117.533 127.913 118.8 127.131 119.581C126.35 120.362 125.084 120.362 124.303 119.581L116.965 112.243Z" fill="#2824EF"/>
<path d="M133.303 109.415C134.084 108.634 135.35 108.634 136.131 109.415C136.913 110.196 136.913 111.462 136.131 112.243L128.794 119.581C128.013 120.362 126.746 120.362 125.965 119.581C125.184 118.8 125.184 117.533 125.965 116.752L133.303 109.415Z" fill="#2824EF"/>
<path d="M136.131 149.752C136.912 150.533 136.912 151.8 136.131 152.581C135.35 153.362 134.084 153.362 133.303 152.581L125.965 145.243C125.184 144.462 125.184 143.196 125.965 142.415C126.746 141.634 128.012 141.634 128.793 142.415L136.131 149.752Z" fill="#2824EF"/>
<path d="M119.793 152.581C119.012 153.362 117.746 153.362 116.965 152.581C116.184 151.8 116.184 150.533 116.965 149.752L124.303 142.415C125.084 141.634 126.35 141.634 127.131 142.415C127.912 143.196 127.912 144.462 127.131 145.243L119.793 152.581Z" fill="#2824EF"/>
<path d="M138.551 115C138.551 113.896 139.447 113 140.551 113C141.656 113 142.551 113.896 142.551 115V121C142.551 122.105 141.656 123 140.551 123C139.447 123 138.551 122.105 138.551 121V115Z" fill="#2824EF"/>
<path d="M149.297 123.077C150.364 123.363 150.997 124.46 150.711 125.527C150.425 126.593 149.328 127.227 148.261 126.941L140.693 124.913C139.626 124.627 138.993 123.53 139.279 122.463C139.565 121.396 140.662 120.763 141.729 121.049L149.297 123.077Z" fill="#2824EF"/>
<path d="M115.229 145.458C115.229 146.563 114.333 147.458 113.229 147.458C112.124 147.458 111.229 146.563 111.229 145.458L111.229 139.458C111.229 138.354 112.124 137.458 113.229 137.458C114.333 137.458 115.229 138.354 115.229 139.458L115.229 145.458Z" fill="#2824EF"/>
<path d="M104.483 137.382C103.416 137.096 102.783 135.999 103.069 134.932C103.355 133.865 104.451 133.232 105.518 133.518L113.086 135.546C114.153 135.832 114.786 136.928 114.5 137.995C114.215 139.062 113.118 139.695 112.051 139.41L104.483 137.382Z" fill="#2824EF"/>
<path d="M105.518 126.935C104.451 127.221 103.355 126.587 103.069 125.52C102.783 124.453 103.416 123.357 104.483 123.071L111.571 121.172C112.638 120.886 113.734 121.519 114.02 122.586C114.306 123.653 113.673 124.75 112.606 125.035L105.518 126.935Z" fill="#2824EF"/>
<path d="M110.551 115C110.551 113.896 111.447 113 112.551 113C113.656 113 114.551 113.896 114.551 115V122.835C114.551 123.94 113.656 124.835 112.551 124.835C111.447 124.835 110.551 123.94 110.551 122.835V115Z" fill="#2824EF"/>
<path d="M148.584 134.518C149.651 134.232 150.748 134.865 151.034 135.932C151.319 136.999 150.686 138.096 149.619 138.382L142.532 140.281C141.465 140.567 140.368 139.934 140.082 138.867C139.796 137.8 140.429 136.703 141.496 136.417L148.584 134.518Z" fill="#2824EF"/>
<path d="M143.551 146.452C143.551 147.557 142.656 148.452 141.551 148.452C140.447 148.452 139.551 147.557 139.551 146.452L139.551 138.617C139.551 137.513 140.447 136.617 141.551 136.617C142.656 136.617 143.551 137.513 143.551 138.617V146.452Z" fill="#2824EF"/>
<path d="M146.769 116.518C147.725 115.966 148.949 116.294 149.501 117.25C150.053 118.207 149.725 119.43 148.769 119.982L106.334 144.482C105.377 145.035 104.154 144.707 103.601 143.75C103.049 142.794 103.377 141.571 104.334 141.018L146.769 116.518Z" fill="#2824EF"/>
<path d="M148.768 141.018C149.725 141.571 150.053 142.794 149.5 143.75C148.948 144.707 147.725 145.035 146.768 144.482L104.333 119.982C103.376 119.43 103.049 118.207 103.601 117.25C104.153 116.294 105.376 115.966 106.333 116.518L148.768 141.018Z" fill="#2824EF"/>
<rect x="2.0681" y="-0.472183" width="19" height="37" transform="matrix(0.846762 0.531973 0.531973 -0.846762 18.5681 89.8986)" stroke="#4B4E58" stroke-width="3"/>
<mask id="path-11-inside-1" fill="white">
<path d="M40.9727 59.0643L56.2144 68.6398C56.5082 68.1722 56.3672 67.5549 55.8996 67.2611L42.3514 58.7495C41.8837 58.4557 41.2665 58.5966 40.9727 59.0643Z"/>
</mask>
<path d="M40.9727 59.0643L56.2144 68.6398C56.5082 68.1722 56.3672 67.5549 55.8996 67.2611L42.3514 58.7495C41.8837 58.4557 41.2665 58.5966 40.9727 59.0643Z" fill="black"/>
<path d="M41.5046 58.2175L56.7463 67.793L55.6824 69.4866L40.4407 59.9111L41.5046 58.2175ZM55.3676 68.1078L41.8194 59.5963L42.8834 57.9028L56.4315 66.4143L55.3676 68.1078ZM41.8194 59.5963L41.8194 59.5963L40.1259 58.5323C40.7135 57.597 41.9481 57.3151 42.8834 57.9028L41.8194 59.5963ZM55.3676 68.1078L56.4315 66.4143C57.3669 67.0019 57.6487 68.2365 57.0611 69.1718L55.3676 68.1078Z" fill="#4B4E58" mask="url(#path-11-inside-1)"/>
<rect x="0.689367" y="-0.157394" width="1" height="31" rx="0.5" transform="matrix(0.846762 0.531973 0.531973 -0.846762 33.8651 96.3379)" fill="black" stroke="#4B4E58"/>
<path d="M30.9313 100.585L23.1654 95.7065C23.8798 96.7998 24.9594 98.0145 26.5164 98.9926C28.0733 99.9708 29.6363 100.416 30.9313 100.585Z" stroke="#4B4E58" stroke-width="3"/>
<path d="M23.4333 102.96L23.703 103.13C23.7637 102.976 23.8399 102.826 23.9303 102.682C24.0206 102.538 24.1225 102.405 24.235 102.283L23.9653 102.114L23.4333 102.96Z" fill="#4B4E58" stroke="#4B4E58" stroke-width="3"/>
<path d="M26.988 104.536L43.0764 114.644L43.6084 113.797L27.5199 103.689L26.988 104.536Z" fill="black" stroke="#4B4E58"/>
</svg>
