<svg width="228" height="198" viewBox="0 0 228 198" fill="none" xmlns="http://www.w3.org/2000/svg">
<path d="M65 123.5H65.3802L65.7144 123.319C68.1801 121.983 71.5902 120.098 75.387 117.999C83.9919 113.241 94.5833 107.385 100.67 104.342C109.223 100.066 116.351 99.5 119 99.5H143C145.263 99.5 149.621 99.9736 151.535 100.431C158.333 103.212 168.464 107.397 177.979 111.328C189.016 115.888 199.225 120.106 202.443 121.393C205.215 122.502 206.651 123.841 207.432 125.099C208.216 126.364 208.44 127.709 208.492 129.035C208.494 129.237 208.495 129.415 208.496 129.575C202.497 130.191 200.314 134.469 200.5 137.06V145C200.5 147.774 202.414 149.674 204.298 150.79C205.643 151.587 207.173 152.114 208.5 152.353V156C208.5 157.283 207.595 158.638 205.961 159.765C204.351 160.876 202.392 161.5 201 161.5H193.243C192.636 158.742 191.302 155.147 188.789 152.054C185.825 148.406 181.246 145.5 174.5 145.5C167.76 145.5 163.1 148.4 160.093 152.045C157.561 155.114 156.208 158.696 155.696 161.5H80.3035C79.7919 158.696 78.439 155.114 75.9071 152.045C72.8999 148.4 68.2396 145.5 61.5 145.5C54.294 145.5 49.5691 148.374 46.6376 152.067C44.1939 155.146 43.0507 158.72 42.6499 161.5H34C28.4406 161.5 25.7112 159.455 24.2737 157.145C22.755 154.704 22.5002 151.687 22.5 149.5C22.5 149.5 22.5 149.5 22.5 149.5V146.5H26C28.983 146.5 30.9737 145.008 32.1308 143.176C33.225 141.443 33.5904 139.4 33.5 137.95V127.568C34.8538 126.195 37.3435 125.191 40.3373 124.527C43.4845 123.829 46.8176 123.583 49.0279 123.5H65Z" stroke="#4B4E58" stroke-width="3"/>
<path d="M25 141H21L28 129V138C28 140 27 141 25 141Z" fill="#4B4E58"/>
<path d="M209 135H210V147C206 147 205 145 205 144V138C205 136 207.667 135 209 135Z" fill="#4B4E58"/>
<circle cx="61.5" cy="163.5" r="12" stroke="#4B4E58" stroke-width="3"/>
<circle cx="61.5" cy="163.5" r="6.5" fill="#4B4E58"/>
<circle cx="174.5" cy="163.5" r="6.5" fill="#4B4E58"/>
<circle cx="174.5" cy="163.5" r="12" stroke="#4B4E58" stroke-width="3"/>
<path d="M67.404 123.715L57.4558 112.489C55.3698 109.883 49.4631 104.072 42.5242 101.67" stroke="#4B4E58" stroke-width="3"/>
<path d="M126.076 106C126.076 104.895 126.971 104 128.076 104C129.18 104 130.076 104.895 130.076 106V155C130.076 156.105 129.18 157 128.076 157C126.971 157 126.076 156.105 126.076 155V106Z" fill="#2824EF"/>
<path d="M118.49 112.243C117.709 111.462 117.709 110.195 118.49 109.414C119.271 108.633 120.537 108.633 121.318 109.414L128.656 116.752C129.437 117.533 129.437 118.799 128.656 119.58C127.875 120.361 126.609 120.361 125.828 119.58L118.49 112.243Z" fill="#2824EF"/>
<path d="M134.828 109.414C135.609 108.633 136.875 108.633 137.656 109.414C138.437 110.195 138.437 111.462 137.656 112.243L130.318 119.58C129.537 120.361 128.271 120.361 127.49 119.58C126.709 118.799 126.709 117.533 127.49 116.752L134.828 109.414Z" fill="#2824EF"/>
<path d="M137.656 149.752C138.437 150.533 138.437 151.799 137.656 152.58C136.874 153.361 135.608 153.361 134.827 152.58L127.489 145.243C126.708 144.462 126.708 143.195 127.489 142.414C128.27 141.633 129.537 141.633 130.318 142.414L137.656 149.752Z" fill="#2824EF"/>
<path d="M121.318 152.58C120.537 153.361 119.271 153.361 118.49 152.58C117.708 151.799 117.708 150.533 118.49 149.752L125.827 142.414C126.608 141.633 127.875 141.633 128.656 142.414C129.437 143.195 129.437 144.462 128.656 145.243L121.318 152.58Z" fill="#2824EF"/>
<path d="M140.076 115C140.076 113.895 140.971 113 142.076 113C143.18 113 144.076 113.895 144.076 115V121C144.076 122.105 143.18 123 142.076 123C140.971 123 140.076 122.105 140.076 121V115Z" fill="#2824EF"/>
<path d="M150.821 123.077C151.888 123.363 152.521 124.459 152.235 125.526C151.949 126.593 150.853 127.226 149.786 126.94L142.218 124.913C141.151 124.627 140.518 123.53 140.804 122.463C141.089 121.396 142.186 120.763 143.253 121.049L150.821 123.077Z" fill="#2824EF"/>
<path d="M116.753 145.458C116.753 146.563 115.858 147.458 114.753 147.458C113.649 147.458 112.753 146.563 112.753 145.458L112.753 139.458C112.753 138.353 113.649 137.458 114.753 137.458C115.858 137.458 116.753 138.353 116.753 139.458L116.753 145.458Z" fill="#2824EF"/>
<path d="M106.007 137.381C104.941 137.095 104.307 135.999 104.593 134.932C104.879 133.865 105.976 133.232 107.043 133.518L114.611 135.545C115.678 135.831 116.311 136.928 116.025 137.995C115.739 139.062 114.642 139.695 113.575 139.409L106.007 137.381Z" fill="#2824EF"/>
<path d="M107.043 126.934C105.976 127.22 104.879 126.587 104.593 125.52C104.307 124.453 104.94 123.356 106.007 123.071L113.095 121.171C114.162 120.886 115.259 121.519 115.545 122.586C115.83 123.653 115.197 124.749 114.13 125.035L107.043 126.934Z" fill="#2824EF"/>
<path d="M112.076 115C112.076 113.895 112.971 113 114.076 113C115.18 113 116.076 113.895 116.076 115V122.835C116.076 123.94 115.18 124.835 114.076 124.835C112.971 124.835 112.076 123.94 112.076 122.835V115Z" fill="#2824EF"/>
<path d="M150.109 134.518C151.176 134.232 152.272 134.865 152.558 135.932C152.844 136.999 152.211 138.095 151.144 138.381L144.056 140.281C142.989 140.566 141.892 139.933 141.607 138.866C141.321 137.799 141.954 136.703 143.021 136.417L150.109 134.518Z" fill="#2824EF"/>
<path d="M145.076 146.452C145.076 147.556 144.18 148.452 143.076 148.452C141.971 148.452 141.076 147.556 141.076 146.452L141.076 138.617C141.076 137.512 141.971 136.617 143.076 136.617C144.18 136.617 145.076 137.512 145.076 138.617V146.452Z" fill="#2824EF"/>
<path d="M148.293 116.518C149.25 115.966 150.473 116.293 151.025 117.25C151.578 118.207 151.25 119.43 150.293 119.982L107.858 144.482C106.901 145.034 105.678 144.707 105.126 143.75C104.574 142.793 104.901 141.57 105.858 141.018L148.293 116.518Z" fill="#2824EF"/>
<path d="M150.293 141.018C151.249 141.57 151.577 142.793 151.025 143.75C150.473 144.707 149.249 145.034 148.293 144.482L105.858 119.982C104.901 119.43 104.573 118.207 105.125 117.25C105.678 116.293 106.901 115.966 107.858 116.518L150.293 141.018Z" fill="#2824EF"/>
<path fill-rule="evenodd" clip-rule="evenodd" d="M41 47H97V84H41V47ZM46.3718 52.0978H91.6276V78.5733H46.3718V52.0978ZM69.0814 51.2756C70.0254 51.2756 70.7907 50.5025 70.7907 49.5489C70.7907 48.5953 70.0254 47.8222 69.0814 47.8222C68.1374 47.8222 67.3721 48.5953 67.3721 49.5489C67.3721 50.5025 68.1374 51.2756 69.0814 51.2756Z" fill="#4B4E58"/>
<path d="M29.5245 90H27.5245L27.5244 87H29.5245L30.5245 86L35.5245 86.0186V91.0186L30.5245 91L29.5245 90Z" fill="#4B4E58"/>
<path d="M38 86H101V87C101 89.7614 98.7614 92 96 92H43C40.2386 92 38 89.7614 38 87V86Z" fill="#4B4E58"/>
<path d="M73.1796 54L63.7438 69.4244L60.2157 65.7712C59.7781 65.7712 56.6383 65.9661 47.5799 66.7454C46.5296 67.1351 47.1423 67.8278 47.5799 68.1255L57.6721 68.8561L64.4823 76L72.9335 62.2804L75.8873 68.1255L90 67.3948V65.7712L79.2514 65.0406L73.1796 54Z" fill="#0295F3"/>
<path d="M27.5247 88.5H24.5247C22.1913 88.6667 17.6247 90.6 18.0247 97C18.4247 103.4 22.5247 105 24.5247 105H29.5244C33.3577 105 36.8244 106.4 40.0244 112C43.2244 117.6 53.5244 124 58.0244 123.5" stroke="#4B4E58" stroke-width="3"/>
</svg>
