<svg width="60" height="64" viewBox="0 0 60 64" fill="none" xmlns="http://www.w3.org/2000/svg">
<path d="M24.3871 26.1048V31.6013C24.543 32.9755 24.0129 36.823 20.6452 41.2202H15.0323V55.8776H21.5806C22.672 57.2517 25.7903 60 29.5323 60M29.5323 60C33.2742 60 36.7043 57.0991 37.9516 55.8776M29.5323 60C33.2742 60 36.3925 57.2517 37.4839 55.8776H44.0323V41.2202H38.4194C35.0516 36.823 34.5215 32.9755 34.6774 31.6013V26.1048M29.5323 60C25.7903 60 22.3602 57.0991 21.1129 55.8776M15.0323 48.0909H19.7097M39.3548 48.0909H44.0323M12.2258 9.6153H33.7419M12.2258 14.1957L46.8387 14.6538M39.3548 9.6153H46.8387M35.6129 9.6153H37.4839M7.54839 52.2133C4.74193 49.9231 0.812901 43.3272 7.54839 35.2657M12.2258 59.0839C8.95161 59.0839 2.12258 56.8853 1 48.0909M52.4516 52.2133C55.2581 49.9231 59.1871 43.3272 52.4516 35.2657M47.7742 59.0839C51.0484 59.0839 57.8774 56.8853 59 48.0909M37.4839 49.007C37.4839 53.0545 34.1332 56.3357 30 56.3357C25.8668 56.3357 22.5161 53.0545 22.5161 49.007C22.5161 44.9595 25.8668 41.6783 30 41.6783C34.1332 41.6783 37.4839 44.9595 37.4839 49.007ZM39.3548 26.1049L41.2258 30.6853H47.7742V5.03491C42.0054 2.7447 27.1 -0.461604 11.7581 5.03491V30.6853H17.8387L19.7097 26.1049H39.3548Z" stroke="#0295F3" stroke-width="2"/>
</svg>
