<svg width="60" height="64" viewBox="0 0 60 64" fill="none" xmlns="http://www.w3.org/2000/svg">
<path d="M22.7143 38.9165H11.8571V42.7431L10.7143 43.2898H6.14286L5 42.7431V38.9165H3.85714V25.2501H2.14286L1 24.1568V21.4235L2.14286 20.3302H5L6.14286 19.2369L7 16.0423L7.28571 14.8636C7.28571 14.3169 7.62857 13.2236 9 13.2236C10.3714 13.2236 22.9048 13.2236 29 13.2236" stroke="#0295F3" stroke-width="2" stroke-linejoin="round"/>
<circle cx="10" cy="29" r="2" stroke="#0295F3" stroke-width="2"/>
<path d="M28 24H8C8.5 22.3333 9.7 18.8 10.5 18C11.3 17.2 12.1667 17 12.5 17H27" stroke="#0295F3" stroke-width="2" stroke-linejoin="round"/>
<path d="M29 41H24V30C24 27.2 27 25.5 29 25H32C32 26.2 34.3333 26.8333 35 27H40C41.6 27 42.6667 25.6667 43 25H45C48.2 25.8 50.3333 28.6667 51 30V41H33V36C35.4 35.2 34 32.3333 33 31C33.1667 32 33 34 31 34C29 34 28.8333 32 29 31C28.8333 31 28.4 31.2 28 32C27.2 34.4 28 35.6667 29 36V41Z" stroke="#0295F3" stroke-width="2"/>
<path d="M31.5001 11C30.3001 11.8 30.3334 15.6667 30.5001 17.5C34.8334 17.3333 44.0001 17 46.0001 17C48.5001 17 50.0001 15 51.0001 14.5C51.8001 14.1 50.6667 13.3333 50.0001 13H44.5001C43.5001 10 41.5001 8.5 37.5001 8.5C33.5001 8.5 33.0001 10 31.5001 11Z" stroke="#0295F3" stroke-width="2"/>
<path d="M31.5 17.5C31.5 19 31.9 22.2 33.5 23C35.5 24 36.5 24 38.5 24C40.5 24 42.5 22.5 43 22C43.5 21.5 44 17 44 17" stroke="#0295F3" stroke-width="2"/>
</svg>
