<svg width="60" height="64" viewBox="0 0 60 64" fill="none" xmlns="http://www.w3.org/2000/svg">
<path d="M10.3093 58L12.7638 49H43.2362L45.6908 58H10.3093Z" stroke="#0295F3" stroke-width="2"/>
<rect x="17" y="46" width="22" height="3" stroke="#0295F3" stroke-width="2"/>
<path d="M25 45V39C22.8334 37.3333 18.2 33.4 17 31C8.00006 31 0.426143 20.2876 2.00005 9H12V5H28" stroke="#0295F3" stroke-width="2"/>
<path d="M31 45V39C33.1666 37.3333 37.8 33.4 39 31C47.9999 31 55.5739 20.2876 54 9H44V5H28" stroke="#0295F3" stroke-width="2"/>
<path d="M7 13C8.2 24.6 13.5 27.1667 16 27C13.6 21.8 13 15.5 13 13H7Z" stroke="#0295F3" stroke-width="2"/>
<path d="M50 13C48.8 24.6 43.5 27.1667 41 27C43.4 21.8 44 15.5 44 13H50Z" stroke="#0295F3" stroke-width="2"/>
</svg>
